<svg xmlns="http://www.w3.org/2000/svg" xmlns:xlink="http://www.w3.org/1999/xlink" width="500" zoomAndPan="magnify" viewBox="0 0 375 338.999992" height="452" preserveAspectRatio="xMidYMid meet" version="1.0"><path fill="#2a2a2a" d="M 371.605469 180.242188 C 372.140625 179.492188 372.617188 178.703125 373.027344 177.875 C 373.441406 177.050781 373.789062 176.199219 374.070312 175.316406 C 374.351562 174.4375 374.5625 173.542969 374.703125 172.628906 C 374.847656 171.714844 374.917969 170.796875 374.917969 169.875 C 374.917969 168.953125 374.847656 168.035156 374.703125 167.121094 C 374.5625 166.207031 374.351562 165.3125 374.070312 164.433594 C 373.789062 163.550781 373.441406 162.699219 373.027344 161.875 C 372.617188 161.046875 372.140625 160.257812 371.605469 159.507812 C 322.5 91.214844 257.144531 53.675781 187.5 53.675781 C 173.625 53.78125 159.917969 55.339844 146.375 58.351562 C 132.832031 61.367188 119.753906 65.765625 107.144531 71.550781 L 48.214844 8.984375 C 47.824219 8.511719 47.410156 8.058594 46.976562 7.628906 C 46.539062 7.199219 46.082031 6.789062 45.605469 6.40625 C 45.125 6.023438 44.628906 5.667969 44.113281 5.335938 C 43.597656 5.003906 43.070312 4.695312 42.523438 4.417969 C 41.976562 4.140625 41.417969 3.894531 40.84375 3.671875 C 40.273438 3.453125 39.691406 3.261719 39.101562 3.105469 C 38.507812 2.945312 37.910156 2.8125 37.308594 2.714844 C 36.703125 2.617188 36.09375 2.550781 35.484375 2.515625 C 34.871094 2.480469 34.257812 2.472656 33.648438 2.5 C 33.035156 2.527344 32.425781 2.585938 31.820312 2.675781 C 31.214844 2.765625 30.617188 2.886719 30.023438 3.039062 C 29.429688 3.191406 28.84375 3.375 28.269531 3.585938 C 27.695312 3.796875 27.132812 4.039062 26.582031 4.308594 C 26.03125 4.578125 25.496094 4.875 24.976562 5.199219 C 24.457031 5.523438 23.957031 5.875 23.472656 6.253906 C 22.992188 6.628906 22.527344 7.03125 22.085938 7.453125 C 21.644531 7.878906 21.222656 8.324219 20.828125 8.792969 C 20.429688 9.257812 20.058594 9.746094 19.714844 10.25 C 19.367188 10.757812 19.046875 11.28125 18.753906 11.816406 C 18.460938 12.355469 18.199219 12.910156 17.960938 13.476562 C 17.726562 14.039062 17.519531 14.617188 17.34375 15.203125 C 17.164062 15.792969 17.019531 16.386719 16.90625 16.988281 C 16.789062 17.589844 16.703125 18.199219 16.652344 18.808594 C 16.597656 19.417969 16.578125 20.03125 16.585938 20.644531 C 16.59375 21.257812 16.636719 21.867188 16.710938 22.476562 C 16.78125 23.085938 16.886719 23.691406 17.019531 24.289062 C 17.15625 24.886719 17.320312 25.476562 17.515625 26.058594 C 17.710938 26.636719 17.933594 27.207031 18.1875 27.765625 C 18.441406 28.324219 18.722656 28.867188 19.03125 29.398438 C 19.34375 29.925781 19.679688 30.4375 20.039062 30.933594 C 20.402344 31.425781 20.789062 31.902344 21.199219 32.355469 C 21.613281 32.8125 22.042969 33.242188 22.5 33.652344 L 76.070312 89.070312 C 62.121094 98.53125 49.144531 109.179688 37.136719 121.019531 C 25.132812 132.855469 14.300781 145.683594 4.644531 159.507812 C 4.109375 160.257812 3.632812 161.046875 3.222656 161.875 C 2.808594 162.699219 2.460938 163.550781 2.179688 164.433594 C 1.898438 165.3125 1.6875 166.207031 1.546875 167.121094 C 1.402344 168.035156 1.332031 168.953125 1.332031 169.875 C 1.332031 170.796875 1.402344 171.714844 1.546875 172.628906 C 1.6875 173.542969 1.898438 174.4375 2.179688 175.316406 C 2.460938 176.199219 2.808594 177.050781 3.222656 177.875 C 3.632812 178.703125 4.109375 179.492188 4.644531 180.242188 C 52.320312 248.535156 117.679688 286.074219 187.320312 286.074219 C 198.46875 285.980469 209.53125 284.941406 220.5 282.960938 C 231.472656 280.980469 242.199219 278.085938 252.679688 274.277344 L 306.25 330.230469 C 306.664062 330.640625 307.09375 331.03125 307.546875 331.402344 C 308 331.769531 308.464844 332.117188 308.953125 332.4375 C 309.4375 332.761719 309.9375 333.058594 310.449219 333.332031 C 310.964844 333.609375 311.492188 333.855469 312.03125 334.078125 C 312.570312 334.300781 313.117188 334.496094 313.675781 334.664062 C 314.230469 334.832031 314.796875 334.976562 315.367188 335.089844 C 315.941406 335.203125 316.515625 335.285156 317.09375 335.34375 C 317.675781 335.402344 318.257812 335.429688 318.839844 335.429688 C 319.421875 335.429688 320.003906 335.402344 320.582031 335.34375 C 321.164062 335.285156 321.738281 335.203125 322.308594 335.089844 C 322.882812 334.976562 323.445312 334.832031 324.003906 334.664062 C 324.5625 334.496094 325.109375 334.300781 325.648438 334.078125 C 326.1875 333.855469 326.714844 333.609375 327.226562 333.332031 C 327.742188 333.058594 328.242188 332.761719 328.726562 332.4375 C 329.210938 332.117188 329.679688 331.769531 330.132812 331.402344 C 330.582031 331.03125 331.015625 330.640625 331.429688 330.230469 C 331.839844 329.816406 332.230469 329.382812 332.597656 328.933594 C 332.964844 328.480469 333.3125 328.011719 333.632812 327.527344 C 333.957031 327.039062 334.253906 326.539062 334.527344 326.023438 C 334.800781 325.511719 335.050781 324.984375 335.273438 324.445312 C 335.496094 323.90625 335.691406 323.355469 335.859375 322.796875 C 336.027344 322.238281 336.167969 321.675781 336.28125 321.101562 C 336.394531 320.53125 336.480469 319.953125 336.535156 319.371094 C 336.59375 318.792969 336.621094 318.210938 336.621094 317.628906 C 336.621094 317.042969 336.59375 316.460938 336.535156 315.882812 C 336.480469 315.300781 336.394531 314.726562 336.28125 314.152344 C 336.167969 313.582031 336.027344 313.015625 335.859375 312.457031 C 335.691406 311.898438 335.496094 311.351562 335.273438 310.8125 C 335.050781 310.273438 334.800781 309.746094 334.527344 309.230469 C 334.253906 308.714844 333.957031 308.214844 333.632812 307.730469 C 333.3125 307.242188 332.964844 306.773438 332.597656 306.324219 C 332.230469 305.871094 331.839844 305.4375 331.429688 305.023438 L 286.605469 258.1875 C 294.984375 253.3125 303.078125 248.003906 310.882812 242.257812 C 318.6875 236.511719 326.164062 230.359375 333.308594 223.808594 C 340.457031 217.257812 347.230469 210.339844 353.628906 203.058594 C 360.03125 195.777344 366.023438 188.171875 371.605469 180.242188 Z M 130.355469 146.277344 L 208.929688 228.511719 C 202.070312 231.035156 194.984375 232.34375 187.679688 232.445312 C 186.40625 232.445312 185.132812 232.402344 183.863281 232.324219 C 182.59375 232.246094 181.328125 232.128906 180.0625 231.972656 C 178.800781 231.816406 177.542969 231.621094 176.292969 231.386719 C 175.042969 231.152344 173.796875 230.878906 172.5625 230.570312 C 171.328125 230.257812 170.105469 229.910156 168.894531 229.523438 C 167.679688 229.136719 166.480469 228.714844 165.292969 228.257812 C 164.105469 227.796875 162.933594 227.300781 161.777344 226.769531 C 160.621094 226.238281 159.480469 225.671875 158.359375 225.070312 C 157.238281 224.46875 156.136719 223.832031 155.050781 223.160156 C 153.96875 222.492188 152.90625 221.789062 151.867188 221.054688 C 150.828125 220.320312 149.8125 219.554688 148.820312 218.757812 C 147.828125 217.960938 146.859375 217.132812 145.917969 216.277344 C 144.976562 215.417969 144.0625 214.535156 143.171875 213.621094 C 142.285156 212.707031 141.425781 211.769531 140.597656 210.800781 C 139.765625 209.835938 138.96875 208.84375 138.199219 207.828125 C 137.429688 206.816406 136.691406 205.777344 135.984375 204.714844 C 135.28125 203.65625 134.609375 202.574219 133.96875 201.472656 C 133.328125 200.371094 132.726562 199.25 132.15625 198.113281 C 131.585938 196.972656 131.050781 195.816406 130.550781 194.644531 C 130.050781 193.472656 129.585938 192.285156 129.160156 191.085938 C 128.734375 189.886719 128.34375 188.671875 127.992188 187.449219 C 127.640625 186.222656 127.324219 184.992188 127.050781 183.746094 C 126.773438 182.503906 126.535156 181.25 126.335938 179.992188 C 126.136719 178.734375 125.972656 177.472656 125.851562 176.203125 C 125.730469 174.933594 125.648438 173.664062 125.601562 172.390625 C 125.558594 171.117188 125.554688 169.84375 125.585938 168.570312 C 125.621094 167.296875 125.695312 166.023438 125.808594 164.753906 C 125.917969 163.488281 126.070312 162.222656 126.257812 160.960938 C 126.449219 159.703125 126.675781 158.449219 126.945312 157.203125 C 127.210938 155.957031 127.515625 154.722656 127.855469 153.492188 C 128.199219 152.265625 128.578125 151.050781 128.996094 149.847656 C 129.414062 148.644531 129.867188 147.453125 130.355469 146.277344 Z M 237.5 206.878906 L 152.855469 117.496094 C 155.207031 115.910156 157.65625 114.492188 160.199219 113.238281 C 162.742188 111.988281 165.359375 110.914062 168.050781 110.019531 C 170.742188 109.125 173.480469 108.417969 176.265625 107.898438 C 179.050781 107.378906 181.859375 107.050781 184.691406 106.914062 C 187.523438 106.777344 190.351562 106.835938 193.175781 107.085938 C 196 107.335938 198.792969 107.777344 201.554688 108.40625 C 204.320312 109.039062 207.027344 109.855469 209.679688 110.855469 C 212.332031 111.859375 214.902344 113.035156 217.394531 114.386719 C 219.886719 115.742188 222.277344 117.257812 224.5625 118.9375 C 226.847656 120.613281 229.007812 122.441406 231.042969 124.414062 C 233.078125 126.390625 234.972656 128.492188 236.722656 130.726562 C 238.472656 132.957031 240.0625 135.300781 241.492188 137.75 C 242.921875 140.199219 244.179688 142.734375 245.265625 145.359375 C 246.347656 147.980469 247.25 150.664062 247.96875 153.40625 C 248.6875 156.152344 249.21875 158.933594 249.558594 161.75 C 249.898438 164.566406 250.046875 167.394531 250 170.234375 C 249.992188 173.519531 249.71875 176.78125 249.183594 180.023438 C 248.648438 183.265625 247.855469 186.441406 246.808594 189.558594 C 245.761719 192.671875 244.472656 195.679688 242.941406 198.585938 C 241.410156 201.492188 239.65625 204.257812 237.679688 206.878906 Z M 40.179688 169.875 C 48.53125 159.058594 57.78125 149.070312 67.921875 139.910156 C 78.058594 130.75 88.933594 122.5625 100.535156 115.351562 L 104.285156 119.105469 C 102.988281 121.214844 101.773438 123.367188 100.640625 125.570312 C 99.511719 127.769531 98.460938 130.011719 97.5 132.292969 C 96.539062 134.570312 95.664062 136.886719 94.878906 139.234375 C 94.09375 141.582031 93.398438 143.957031 92.792969 146.355469 C 92.191406 148.757812 91.675781 151.175781 91.257812 153.617188 C 90.835938 156.054688 90.507812 158.507812 90.273438 160.972656 C 90.042969 163.4375 89.902344 165.90625 89.855469 168.382812 C 89.808594 170.859375 89.859375 173.332031 90 175.804688 C 90.144531 178.273438 90.378906 180.738281 90.710938 183.191406 C 91.039062 185.644531 91.464844 188.082031 91.980469 190.503906 C 92.496094 192.925781 93.101562 195.324219 93.800781 197.699219 C 94.5 200.074219 95.285156 202.417969 96.164062 204.734375 C 97.039062 207.046875 98.003906 209.324219 99.054688 211.566406 C 100.105469 213.808594 101.238281 216.007812 102.457031 218.160156 C 103.675781 220.316406 104.972656 222.421875 106.351562 224.476562 C 107.730469 226.53125 109.183594 228.53125 110.714844 230.476562 C 96.996094 222.921875 84.195312 214.039062 72.3125 203.828125 C 60.433594 193.621094 49.71875 182.304688 40.179688 169.875 Z M 265 230.121094 C 266.683594 227.988281 268.273438 225.789062 269.773438 223.523438 C 271.273438 221.261719 272.675781 218.9375 273.980469 216.554688 C 275.289062 214.171875 276.492188 211.738281 277.59375 209.253906 C 278.695312 206.773438 279.691406 204.246094 280.582031 201.679688 C 281.472656 199.113281 282.257812 196.515625 282.929688 193.882812 C 283.605469 191.25 284.167969 188.59375 284.617188 185.914062 C 285.070312 183.234375 285.410156 180.542969 285.636719 177.832031 C 285.863281 175.125 285.976562 172.414062 285.976562 169.695312 C 285.976562 166.980469 285.863281 164.265625 285.636719 161.558594 C 285.410156 158.851562 285.070312 156.15625 284.617188 153.476562 C 284.167969 150.796875 283.605469 148.140625 282.929688 145.511719 C 282.257812 142.878906 281.472656 140.277344 280.582031 137.710938 C 279.691406 135.144531 278.695312 132.621094 277.59375 130.136719 C 276.492188 127.652344 275.289062 125.21875 273.980469 122.839844 C 272.675781 120.457031 271.273438 118.132812 269.773438 115.867188 C 268.273438 113.601562 266.683594 111.402344 265 109.273438 C 278.667969 116.863281 291.429688 125.761719 303.277344 135.964844 C 315.128906 146.171875 325.820312 157.476562 335.355469 169.875 C 325.808594 182.214844 315.113281 193.460938 303.261719 203.605469 C 291.414062 213.753906 278.660156 222.589844 265 230.121094 Z M 265 230.121094 " fill-opacity="1" fill-rule="nonzero"/></svg>