<svg xmlns="http://www.w3.org/2000/svg" xmlns:xlink="http://www.w3.org/1999/xlink" width="500" zoomAndPan="magnify" viewBox="0 0 375 267.749983" height="357" preserveAspectRatio="xMidYMid meet" version="1.0"><defs><clipPath id="id1"><path d="M 0.175781 16 L 374.824219 16 L 374.824219 267.5 L 0.175781 267.5 Z M 0.175781 16 " clip-rule="nonzero"/></clipPath></defs><g clip-path="url(#id1)"><path fill="#ffcc4d" d="M 194.632812 194.410156 C 192.121094 196.914062 188.734375 198.316406 185.191406 198.316406 C 181.628906 198.316406 178.242188 196.914062 175.734375 194.410156 L 1.625 20.207031 C 1.09375 22.359375 0.316406 24.417969 0.316406 26.746094 L 0.316406 240.742188 C 0.316406 255.53125 12.277344 267.503906 27.058594 267.503906 L 347.945312 267.503906 C 362.671875 267.503906 374.683594 255.535156 374.683594 240.742188 L 374.683594 26.746094 C 374.683594 23.066406 373.90625 19.5625 372.582031 16.410156 Z M 194.632812 194.410156 " fill-opacity="1" fill-rule="nonzero"/></g><path fill="#ffcc4d" d="M 185.191406 166.042969 L 350.617188 0.539062 C 349.6875 0.4375 348.890625 0 347.945312 0 L 27.058594 0 C 24.730469 0 22.679688 0.757812 20.53125 1.300781 Z M 185.191406 166.042969 " fill-opacity="1" fill-rule="nonzero"/></svg>