<svg xmlns="http://www.w3.org/2000/svg" xmlns:xlink="http://www.w3.org/1999/xlink" width="500" zoomAndPan="magnify" viewBox="0 0 375 377.249997" height="503" preserveAspectRatio="xMidYMid meet" version="1.0"><defs><clipPath id="id1"><path d="M 0.371094 0 L 374.628906 0 L 374.628906 376.5 L 0.371094 376.5 Z M 0.371094 0 " clip-rule="nonzero"/></clipPath><clipPath id="id2"><path d="M 114.441406 103.085938 L 216.988281 103.085938 L 216.988281 272.996094 L 114.441406 272.996094 Z M 114.441406 103.085938 " clip-rule="nonzero"/></clipPath></defs><g clip-path="url(#id1)"><path fill="#ffffff" d="M 187.5 0 C 84.152344 0 0.375 84.28125 0.375 188.25 C 0.375 292.21875 84.152344 376.5 187.5 376.5 C 290.847656 376.5 374.625 292.21875 374.625 188.25 C 374.625 84.28125 290.847656 0 187.5 0 " fill-opacity="1" fill-rule="nonzero"/></g><g clip-path="url(#id2)"><path fill="#2a2a2a" d="M 199.089844 272.8125 L 114.457031 188.320312 L 199.679688 103.246094 L 217.007812 120.542969 L 149.117188 188.320312 L 216.421875 255.515625 L 199.089844 272.8125 " fill-opacity="1" fill-rule="nonzero"/></g></svg>