<svg xmlns="http://www.w3.org/2000/svg" xmlns:xlink="http://www.w3.org/1999/xlink" width="350" zoomAndPan="magnify" viewBox="0 0 262.5 374.999991" height="500" preserveAspectRatio="xMidYMid meet" version="1.0"><defs><clipPath id="id1"><path d="M 0 0.355469 L 262 0.355469 L 262 374.640625 L 0 374.640625 Z M 0 0.355469 " clip-rule="nonzero"/></clipPath></defs><g clip-path="url(#id1)"><path fill="#ffcc4d" d="M 131.25 0.355469 C 58.78125 0.355469 0 59.136719 0 131.605469 C 0 230.042969 131.25 375.355469 131.25 375.355469 C 131.25 375.355469 262.5 230.042969 262.5 131.605469 C 262.5 59.136719 203.71875 0.355469 131.25 0.355469 Z M 131.25 178.480469 C 105.375 178.480469 84.375 157.480469 84.375 131.605469 C 84.375 105.730469 105.375 84.730469 131.25 84.730469 C 157.125 84.730469 178.125 105.730469 178.125 131.605469 C 178.125 157.480469 157.125 178.480469 131.25 178.480469 Z M 131.25 178.480469 " fill-opacity="1" fill-rule="nonzero"/></g></svg>