<svg xmlns="http://www.w3.org/2000/svg" xmlns:xlink="http://www.w3.org/1999/xlink" width="991" zoomAndPan="magnify" viewBox="0 0 743.25 299.999988" height="400" preserveAspectRatio="xMidYMid meet" version="1.0"><defs><clipPath id="id1"><path d="M 304 14.558594 L 742.097656 14.558594 L 742.097656 299.847656 L 304 299.847656 Z M 304 14.558594 " clip-rule="nonzero"/></clipPath><clipPath id="id2"><path d="M 635 0.152344 L 643 0.152344 L 643 9 L 635 9 Z M 635 0.152344 " clip-rule="nonzero"/></clipPath><clipPath id="id3"><path d="M 643 0.152344 L 655 0.152344 L 655 12 L 643 12 Z M 643 0.152344 " clip-rule="nonzero"/></clipPath></defs><path fill="#a6a6a6" d="M 3.40625 45.3125 C 3.40625 45.3125 2.59375 45.851562 1.785156 45.039062 C 0.976562 44.226562 0.433594 43.144531 0.433594 43.144531 L 1.246094 41.523438 L 3.40625 41.253906 L 5.03125 42.335938 L 6.652344 42.605469 L 7.464844 40.714844 C 8.816406 40.445312 9.898438 40.171875 9.898438 40.171875 L 11.25 42.066406 L 11.792969 43.957031 C 12.601562 45.3125 11.792969 46.929688 11.792969 46.929688 C 10.4375 47.742188 8.816406 47.199219 8.816406 47.199219 L 6.921875 47.472656 L 5.03125 49.90625 C 3.136719 49.09375 2.59375 47.472656 2.59375 47.472656 L 3.40625 45.3125 " fill-opacity="1" fill-rule="nonzero"/><path fill="#a6a6a6" d="M 2.59375 45.851562 C 0.703125 45.851562 0.703125 45.851562 0.703125 45.851562 L 0.433594 43.144531 " fill-opacity="1" fill-rule="nonzero"/><path fill="#a6a6a6" d="M 8.414062 49.230469 L 8.816406 51.257812 L 9.085938 53.421875 L 7.871094 54.503906 C 7.871094 54.503906 6.921875 54.367188 6.519531 53.691406 C 6.113281 53.015625 6.382812 51.664062 6.382812 51.664062 L 7.464844 50.582031 L 8.414062 49.230469 " fill-opacity="1" fill-rule="nonzero"/><path fill="#a6a6a6" d="M 23.828125 36.117188 C 23.828125 36.117188 24.5 34.089844 24.367188 33.683594 C 24.230469 33.277344 23.691406 32.601562 23.691406 32.601562 L 23.828125 30.84375 L 24.636719 29.222656 C 25.316406 28.949219 26.667969 29.898438 26.667969 29.898438 L 27.207031 30.574219 L 28.96875 29.222656 L 29.777344 30.710938 L 30.316406 32.0625 L 30.046875 34.089844 L 30.722656 35.984375 L 32.347656 37.0625 L 33.96875 37.738281 L 35.324219 38.550781 L 36.808594 38.277344 L 38.160156 39.765625 C 39.242188 40.578125 41.542969 40.578125 41.542969 40.578125 L 43.570312 40.847656 C 44.382812 41.523438 46.816406 39.496094 46.816406 39.496094 L 47.898438 38.683594 L 49.117188 39.628906 L 49.792969 41.121094 L 51.144531 41.929688 C 51.144531 41.929688 51.953125 43.414062 51.820312 43.957031 C 51.683594 44.5 52.089844 46.257812 52.089844 46.257812 L 52.496094 48.148438 L 53.578125 50.179688 C 54.527344 50.449219 55.878906 50.179688 55.878906 50.179688 L 57.097656 51.257812 L 58.582031 48.824219 C 59.664062 49.90625 60.746094 50.851562 60.746094 50.851562 L 62.503906 50.042969 C 62.503906 50.042969 63.585938 49.5 63.992188 50.3125 C 64.398438 51.125 65.746094 52.203125 64.9375 52.746094 C 64.128906 53.285156 63.046875 54.234375 62.097656 54.773438 C 61.152344 55.3125 61.015625 55.988281 61.558594 56.261719 C 62.097656 56.53125 63.992188 57.339844 63.992188 57.339844 C 63.992188 57.339844 65.074219 57.882812 64.667969 58.558594 C 64.261719 59.234375 63.722656 60.046875 63.453125 60.722656 C 63.179688 61.394531 63.992188 61.53125 63.992188 62.34375 C 63.992188 63.15625 63.585938 64.101562 63.046875 64.777344 C 62.503906 65.453125 62.367188 66.265625 61.558594 66.398438 C 60.746094 66.53125 59.527344 65.859375 59.121094 66.128906 C 58.714844 66.398438 58.988281 66.398438 58.714844 67.480469 C 58.445312 68.566406 58.445312 69.78125 58.3125 70.320312 C 58.175781 70.859375 58.582031 71.128906 59.121094 71.941406 C 59.664062 72.753906 61.960938 74.511719 61.960938 74.511719 C 61.960938 74.511719 63.179688 75.59375 63.453125 76.269531 C 63.722656 76.945312 64.128906 78.433594 64.128906 78.433594 L 65.074219 79.378906 L 66.695312 78.164062 L 68.859375 77.214844 L 69.398438 76.539062 L 69.398438 74.917969 L 69.535156 72.890625 L 70.078125 71.539062 L 71.429688 70.859375 L 73.863281 70.726562 L 74.808594 69.242188 L 75.351562 68.429688 L 77.109375 67.753906 L 79.8125 68.023438 L 81.164062 67.886719 L 83.058594 65.992188 L 84.410156 65.050781 C 84.410156 65.050781 85.628906 65.722656 85.761719 66.265625 C 85.898438 66.804688 86.980469 68.15625 86.980469 68.15625 C 86.980469 68.15625 88.601562 68.023438 88.46875 68.699219 C 88.332031 69.375 87.925781 70.996094 87.925781 71.671875 C 87.925781 72.347656 88.195312 74.511719 88.46875 73.566406 C 88.738281 72.617188 91.308594 72.210938 91.308594 72.210938 L 93.066406 72.347656 L 94.6875 73.972656 L 96.039062 73.160156 L 97.796875 70.726562 L 99.558594 69.105469 L 100.367188 67.886719 L 100.367188 63.5625 L 102.398438 60.316406 L 104.019531 58.015625 L 106.320312 55.179688 L 107.398438 53.691406 L 106.859375 51.933594 L 109.023438 51.796875 L 110.917969 52.609375 L 113.214844 52.746094 C 113.214844 52.746094 114.703125 53.015625 115.648438 53.285156 C 116.597656 53.558594 118.21875 54.503906 118.21875 54.503906 C 118.21875 54.503906 119.4375 55.988281 119.4375 56.53125 C 119.4375 57.070312 120.652344 59.503906 120.789062 60.183594 C 120.921875 60.855469 122.136719 62.613281 122.136719 63.15625 C 122.136719 63.695312 125.25 68.023438 125.925781 68.566406 C 126.605469 69.105469 128.089844 70.726562 128.089844 70.726562 L 129.847656 72.078125 C 129.847656 72.078125 131.878906 73.835938 132.148438 74.511719 C 132.417969 75.1875 133.90625 76.945312 133.90625 76.945312 L 136.882812 79.109375 C 136.882812 79.109375 139.722656 81.269531 140.398438 81.539062 C 141.074219 81.8125 144.585938 83.707031 144.585938 83.707031 L 147.023438 85.460938 C 147.023438 85.460938 148.644531 86.949219 149.050781 87.625 C 149.457031 88.300781 151.078125 90.464844 151.351562 91.007812 C 151.621094 91.546875 157.707031 101.957031 157.707031 102.769531 C 157.707031 103.578125 160.683594 107.230469 160.683594 108.171875 C 160.683594 109.121094 162.710938 112.5 162.710938 112.5 L 164.332031 115.339844 L 165.953125 117.90625 C 165.953125 117.90625 166.089844 119.261719 165.820312 120.207031 C 165.550781 121.15625 165.820312 121.558594 165.683594 122.910156 C 165.550781 124.261719 166.089844 124.128906 166.226562 125.347656 C 166.359375 126.5625 167.039062 127.371094 167.039062 128.183594 C 167.039062 128.996094 168.660156 128.320312 167.847656 129.941406 C 167.039062 131.5625 166.496094 131.15625 166.359375 131.96875 C 166.226562 132.78125 166.226562 132.105469 166.632812 134.132812 C 167.039062 136.160156 167.441406 136.699219 167.847656 137.375 C 168.253906 138.054688 168.660156 138.863281 168.253906 140.082031 C 167.847656 141.296875 167.984375 141.433594 167.714844 142.105469 C 167.441406 142.785156 165.683594 144.003906 165.277344 144.949219 C 164.871094 145.890625 163.925781 145.890625 163.382812 147.652344 C 162.84375 149.410156 163.789062 150.355469 163.65625 151.570312 C 163.519531 152.789062 164.871094 153.738281 164.601562 154.679688 C 164.332031 155.625 163.925781 156.300781 162.980469 157.386719 C 162.035156 158.464844 162.167969 157.65625 161.898438 159.683594 C 161.628906 161.710938 161.765625 162.660156 161.496094 164.011719 C 161.222656 165.363281 161.496094 165.363281 161.765625 166.984375 C 162.035156 168.605469 163.25 171.445312 163.25 171.445312 C 163.25 171.445312 164.464844 173.070312 165.277344 173.609375 C 166.089844 174.148438 167.039062 174.960938 167.039062 175.773438 C 167.039062 176.585938 165.953125 180.773438 165.953125 180.773438 C 165.953125 180.773438 165.007812 183.613281 164.871094 184.289062 C 164.738281 184.964844 164.738281 187.535156 164.871094 188.34375 C 165.007812 189.152344 165.820312 189.019531 165.683594 191.050781 C 165.550781 193.078125 164.871094 197.402344 164.871094 197.402344 C 164.871094 197.402344 165.683594 197.402344 165.277344 199.972656 C 164.871094 202.539062 164.871094 204.164062 164.871094 204.707031 C 164.871094 205.242188 166.089844 207.675781 166.496094 208.355469 C 166.902344 209.03125 171.5 213.898438 171.5 213.898438 L 175.015625 216.328125 L 176.636719 217.277344 L 179.34375 218.222656 L 181.644531 219.441406 C 181.644531 219.441406 182.726562 221.058594 182.859375 221.738281 C 182.996094 222.410156 183.128906 222.953125 182.589844 223.902344 C 182.050781 224.847656 182.457031 226.0625 182.457031 226.0625 L 184.074219 227.417969 C 184.074219 227.417969 184.75 227.957031 185.699219 229.039062 C 186.644531 230.117188 187.726562 231.46875 187.726562 231.46875 L 189.484375 234.042969 L 189.484375 235.527344 C 189.484375 235.527344 188.945312 235.933594 188.808594 236.878906 C 188.675781 237.828125 190.433594 239.3125 190.703125 239.988281 C 190.972656 240.664062 192.867188 242.964844 192.867188 242.964844 C 192.867188 242.964844 194.21875 244.3125 194.488281 245.125 C 194.757812 245.9375 195.570312 247.964844 195.570312 248.777344 C 195.570312 249.589844 195.570312 249.316406 195.570312 251.078125 C 195.570312 252.832031 195.84375 253.238281 196.789062 253.640625 C 197.734375 254.046875 198.816406 255.128906 199.492188 255.808594 C 200.167969 256.484375 201.25 259.457031 201.25 259.457031 C 201.25 259.457031 201.25 261.214844 201.519531 262.296875 C 201.792969 263.378906 202.875 264.59375 203.144531 265.273438 C 203.417969 265.945312 203.28125 267.972656 203.417969 268.785156 C 203.550781 269.597656 203.820312 269.734375 204.089844 270.542969 C 204.363281 271.355469 203.417969 275.277344 203.417969 275.277344 C 203.417969 275.277344 203.6875 275.953125 202.601562 276.085938 C 201.519531 276.222656 201.65625 276.492188 199.492188 276.492188 C 197.328125 276.492188 197.328125 277.164062 196.113281 276.222656 C 194.894531 275.277344 194.894531 275.953125 194.894531 274.734375 C 194.894531 273.515625 195.4375 271.492188 195.4375 271.492188 C 195.4375 271.492188 195.4375 271.21875 194.082031 271.21875 C 192.730469 271.21875 192.867188 271.355469 192.054688 271.894531 C 191.242188 272.433594 189.621094 272.433594 188.945312 272.433594 C 188.269531 272.433594 187.726562 272.300781 186.914062 272.300781 C 186.105469 272.300781 184.480469 271.894531 184.480469 271.894531 L 181.914062 269.460938 L 179.476562 270.003906 C 179.476562 270.003906 179.207031 270.410156 178.261719 270.542969 C 177.3125 270.679688 176.367188 271.21875 176.367188 271.21875 C 176.367188 271.21875 175.828125 271.355469 175.421875 272.300781 C 175.015625 273.246094 174.746094 275.410156 174.070312 275.410156 C 173.394531 275.410156 173.800781 276.492188 172.851562 276.355469 C 171.90625 276.222656 171.90625 276.222656 170.550781 276.222656 C 169.203125 276.222656 169.605469 276.355469 169.066406 276.894531 C 168.527344 277.4375 169.203125 277.839844 168.390625 278.113281 C 167.578125 278.382812 165.683594 277.304688 165.683594 277.304688 C 165.683594 277.304688 162.84375 268.785156 162.441406 268.109375 C 162.035156 267.433594 161.628906 266.625 160.816406 266.355469 C 160.003906 266.082031 157.976562 265.273438 157.976562 265.273438 L 156.082031 264.050781 L 153.785156 262.835938 C 153.785156 262.835938 152.160156 262.160156 151.484375 261.621094 C 150.808594 261.078125 149.589844 260.539062 149.589844 260.539062 C 149.589844 260.539062 147.292969 257.296875 146.753906 257.429688 C 146.214844 257.566406 142.558594 257.699219 142.558594 257.699219 L 141.882812 256.890625 C 141.882812 256.890625 140.804688 255.402344 139.992188 254.722656 C 139.179688 254.046875 139.316406 254.183594 138.097656 253.101562 C 136.882812 252.023438 137.148438 251.617188 136.066406 251.75 C 134.988281 251.886719 134.3125 251.886719 133.367188 251.886719 C 132.417969 251.886719 132.691406 253.101562 131.46875 251.75 C 130.253906 250.398438 129.710938 250.125 128.902344 249.046875 C 128.089844 247.964844 128.089844 247.964844 127.144531 246.75 C 126.199219 245.53125 121.191406 240.527344 121.191406 240.527344 C 121.191406 240.527344 118.761719 238.90625 117.542969 238.90625 C 116.324219 238.90625 116.460938 238.773438 114.703125 237.828125 C 112.945312 236.878906 112.269531 235.796875 110.644531 235.527344 C 109.023438 235.253906 110.511719 236.878906 107.667969 234.714844 C 104.832031 232.558594 104.695312 232.558594 103.882812 231.742188 C 103.074219 230.929688 100.097656 227.6875 100.097656 227.6875 L 96.988281 225.253906 C 96.988281 225.253906 95.363281 224.039062 94.550781 223.089844 C 93.742188 222.144531 93.46875 222.007812 92.929688 221.195312 C 92.390625 220.386719 92.253906 220.25 91.714844 219.441406 C 91.171875 218.628906 90.632812 218.628906 90.089844 218.222656 C 89.550781 217.816406 89.28125 217.683594 88.0625 217.277344 C 86.84375 216.871094 85.628906 217.277344 84.820312 216.597656 C 84.007812 215.921875 84.140625 215.921875 82.652344 214.84375 C 81.164062 213.761719 80.757812 213.488281 79.269531 212.273438 C 77.785156 211.058594 74.402344 207.8125 74.402344 207.8125 C 74.402344 207.8125 73.050781 206.730469 72.238281 206.191406 C 71.429688 205.652344 70.347656 205.109375 69.808594 204.027344 C 69.265625 202.945312 69.671875 202.539062 69.808594 201.59375 C 69.941406 200.648438 68.996094 200.105469 68.996094 200.105469 L 67.101562 199.160156 L 67.371094 196.1875 L 69.265625 195.375 L 70.484375 195.78125 L 72.238281 195.917969 L 73.050781 194.835938 L 71.566406 193.347656 C 71.566406 193.347656 70.753906 192.128906 70.753906 191.589844 C 70.753906 191.050781 70.484375 190.105469 70.214844 189.5625 C 69.941406 189.019531 69.132812 187.261719 69.132812 187.261719 C 69.132812 187.261719 68.859375 187.398438 68.183594 186.179688 C 67.507812 184.964844 67.238281 183.746094 67.238281 183.746094 C 67.238281 183.746094 66.289062 183.207031 65.476562 182.394531 C 64.667969 181.585938 64.261719 181.046875 63.722656 180.234375 C 63.179688 179.421875 62.367188 177.261719 61.960938 176.449219 C 61.558594 175.636719 61.691406 175.636719 60.882812 174.417969 C 60.066406 173.203125 59.933594 173.472656 58.988281 172.125 C 58.039062 170.769531 59.121094 171.847656 58.039062 170.769531 C 56.960938 169.6875 55.742188 168.605469 55.742188 168.605469 C 55.742188 168.605469 53.984375 167.390625 53.710938 166.851562 C 53.441406 166.308594 52.628906 164.820312 52.628906 164.820312 L 51.277344 163.875 C 51.277344 163.875 50.332031 164.011719 49.929688 163.199219 C 49.523438 162.390625 49.792969 161.710938 49.523438 161.308594 C 49.253906 160.898438 48.847656 160.359375 48.847656 160.359375 L 47.085938 159.277344 C 47.085938 159.277344 46.273438 159.144531 45.460938 158.335938 C 44.652344 157.519531 44.515625 157.929688 44.382812 156.980469 C 44.246094 156.03125 44.785156 154.816406 44.921875 153.738281 C 45.058594 152.652344 46.546875 151.839844 46.546875 151.839844 L 47.359375 150.625 L 46.273438 148.460938 L 44.515625 146.707031 L 42.625 145.621094 C 42.625 145.621094 42.21875 146.160156 41.273438 144.410156 C 40.324219 142.648438 39.648438 141.296875 39.648438 140.757812 C 39.648438 140.214844 39.105469 139.40625 39.105469 138.730469 C 39.105469 138.054688 39.917969 133.726562 39.917969 133.1875 C 39.917969 132.644531 41.410156 131.832031 41.410156 131.832031 L 42.21875 130.214844 L 41.8125 127.640625 L 41.679688 126.695312 L 39.785156 126.023438 C 39.785156 126.023438 39.917969 124.398438 39.917969 123.859375 C 39.917969 123.316406 40.191406 122.097656 40.191406 122.097656 L 39.785156 120.613281 L 39.242188 119.261719 L 39.648438 118.449219 L 40.054688 117.773438 C 39.648438 116.828125 39.105469 117.503906 38.835938 116.828125 C 38.566406 116.152344 38.972656 114.800781 38.972656 114.800781 L 37.890625 112.90625 L 36.675781 113.039062 C 36.675781 113.039062 35.59375 113.851562 34.917969 112.5 C 34.242188 111.148438 34.375 112.097656 34.242188 111.148438 C 34.105469 110.203125 30.859375 103.984375 30.859375 103.984375 C 30.859375 103.984375 29.914062 102.769531 29.777344 101.957031 C 29.644531 101.144531 31.128906 99.925781 31.128906 99.925781 L 32.753906 97.359375 L 32.886719 93.707031 L 32.347656 91.953125 L 31.667969 90.328125 L 31.941406 88.976562 C 31.941406 88.976562 31.535156 88.300781 31.402344 87.492188 C 31.265625 86.679688 31.535156 85.324219 31.535156 85.324219 L 30.859375 83.707031 C 30.859375 83.707031 30.453125 83.027344 30.316406 82.351562 C 30.183594 81.675781 30.316406 79.242188 30.316406 79.242188 L 31.402344 72.890625 C 31.402344 72.890625 31.667969 65.320312 31.535156 64.644531 C 31.402344 63.96875 31.265625 62.613281 30.992188 62.074219 C 30.722656 61.53125 30.183594 60.585938 29.777344 59.640625 C 29.371094 58.691406 25.316406 51.933594 24.910156 51.394531 C 24.5 50.851562 23.554688 48.960938 23.554688 48.960938 C 23.554688 48.960938 23.285156 47.742188 22.882812 47.066406 C 22.476562 46.390625 21.933594 44.90625 21.933594 44.90625 C 21.933594 44.90625 21.664062 42.738281 21.664062 42.199219 C 21.664062 41.660156 21.933594 39.765625 21.933594 39.765625 L 23.691406 36.65625 L 23.828125 36.117188 " fill-opacity="1" fill-rule="nonzero"/><path fill="#a6a6a6" d="M 24.5 85.191406 L 26.9375 84.515625 L 28.15625 85.460938 L 29.101562 86.542969 L 30.046875 87.21875 L 29.371094 89.113281 C 29.371094 89.113281 29.371094 90.191406 28.96875 90.871094 C 28.5625 91.546875 28.15625 91.816406 28.019531 92.492188 C 27.886719 93.167969 27.886719 94.25 27.886719 94.25 C 27.886719 94.25 28.425781 95.195312 27.613281 95.464844 C 26.800781 95.738281 26.125 95.332031 26.125 95.332031 L 24.773438 94.25 C 24.773438 94.25 23.828125 94.113281 23.421875 93.976562 C 23.015625 93.84375 22.476562 93.976562 22.207031 92.898438 C 21.933594 91.816406 23.421875 88.84375 23.421875 88.84375 L 23.960938 87.21875 L 24.5 85.191406 " fill-opacity="1" fill-rule="nonzero"/><path fill="#a6a6a6" d="M 38.566406 141.433594 L 39.242188 144.003906 C 39.242188 144.003906 39.242188 145.488281 38.433594 145.082031 C 37.621094 144.675781 36.808594 144.136719 36.808594 143.460938 C 36.808594 142.785156 37.351562 141.835938 37.351562 141.835938 L 38.566406 141.433594 " fill-opacity="1" fill-rule="nonzero"/><path fill="#a6a6a6" d="M 197.464844 204.433594 L 199.085938 205.382812 L 199.898438 207.542969 L 200.710938 209.84375 L 200.84375 211.460938 L 200.03125 213.21875 C 200.03125 213.21875 199.355469 214.03125 198.410156 213.625 C 197.464844 213.21875 196.65625 212.679688 196.25 212.136719 C 195.84375 211.597656 195.570312 211.191406 195.570312 210.515625 C 195.570312 209.84375 196.382812 208.894531 196.382812 208.894531 L 197.464844 207.675781 L 197.195312 205.921875 C 197.195312 205.921875 196.382812 204.433594 197.464844 204.433594 " fill-opacity="1" fill-rule="nonzero"/><g clip-path="url(#id1)"><path fill="#a6a6a6" d="M 304 250.535156 C 304 250.535156 305.214844 249.183594 305.753906 248.910156 C 306.292969 248.640625 307.375 248.371094 307.375 248.371094 L 308.460938 247.695312 L 308.324219 245.53125 L 308.730469 244.042969 C 308.730469 244.042969 308.996094 243.503906 309.273438 244.179688 C 309.539062 244.851562 310.085938 247.558594 310.085938 247.558594 L 310.625 251.886719 L 311.839844 254.046875 L 316.167969 256.347656 L 318.0625 257.296875 L 319.277344 257.835938 L 320.085938 259.320312 L 321.035156 260.402344 L 323.199219 261.484375 L 324.148438 262.160156 L 324.957031 262.023438 L 325.363281 260.945312 L 327.933594 261.351562 L 329.828125 261.753906 L 334.421875 261.484375 L 336.859375 261.621094 L 338.074219 262.023438 C 338.617188 260.945312 339.96875 258.507812 339.96875 258.507812 L 340.238281 256.890625 L 340.644531 256.078125 C 340.644531 256.078125 341.722656 256.753906 341.722656 257.835938 C 341.722656 258.914062 342.132812 260.402344 342.132812 260.402344 L 343.753906 261.351562 L 345.515625 261.753906 L 346.324219 259.457031 L 348.890625 259.050781 C 348.890625 259.050781 350.382812 259.183594 349.976562 259.863281 C 349.570312 260.539062 349.570312 260.808594 348.625 261.890625 C 347.675781 262.972656 347.945312 264.59375 348.488281 264.730469 C 349.027344 264.867188 350.921875 265.542969 350.921875 265.542969 L 354.4375 265.8125 L 357.28125 267.433594 L 358.632812 268.378906 L 359.847656 268.109375 L 362.011719 267.027344 L 364.308594 267.839844 L 366.339844 269.054688 L 368.773438 269.734375 L 370.257812 270.949219 L 371.613281 272.300781 L 373.640625 274.058594 L 375.9375 276.085938 L 379.726562 276.894531 L 381.214844 276.355469 L 383.511719 275.953125 L 385.132812 276.894531 L 386.082031 278.519531 L 386.761719 277.710938 L 386.082031 276.222656 L 385.675781 275.140625 L 384.324219 274.734375 C 384.324219 274.734375 383.105469 275.546875 382.429688 275.410156 C 381.753906 275.277344 382.023438 275.003906 381.214844 275.003906 C 380.402344 275.003906 379.863281 275.003906 379.1875 274.734375 C 378.511719 274.464844 378.78125 274.867188 377.699219 274.058594 C 376.613281 273.246094 375.9375 272.839844 375.9375 272.839844 L 374.453125 271.894531 L 373.371094 270.949219 L 372.152344 269.460938 C 372.152344 269.460938 371.882812 270.003906 371.476562 268.652344 C 371.070312 267.296875 371.203125 266.21875 371.203125 265.542969 C 371.203125 264.867188 372.152344 262.972656 372.152344 262.972656 C 372.152344 262.972656 373.777344 261.621094 374.585938 261.890625 C 375.398438 262.160156 377.5625 262.296875 377.5625 262.296875 L 378.375 262.023438 C 378.375 262.023438 375.9375 260.402344 375.804688 259.726562 C 375.667969 259.050781 375.804688 259.183594 375.667969 258.238281 C 375.535156 257.296875 375.9375 256.210938 375.9375 256.210938 C 375.9375 256.210938 379.726562 249.855469 379.863281 249.316406 C 379.996094 248.777344 380.808594 244.71875 380.808594 244.71875 L 381.484375 242.964844 L 382.160156 241.746094 L 383.917969 241.613281 L 385.949219 242.152344 L 387.570312 243.097656 L 388.113281 240.664062 L 389.191406 240.121094 L 391.492188 241.203125 L 393.113281 241.339844 L 394.738281 241.203125 L 395.550781 240.664062 L 393.523438 239.988281 L 392.167969 240.121094 L 389.460938 239.582031 L 387.976562 239.851562 L 386.488281 240.527344 C 385.542969 240.9375 385 240.527344 384.1875 240.800781 C 383.375 241.070312 382.96875 241.203125 382.160156 241.070312 C 381.351562 240.9375 381.351562 240.9375 381.351562 240.9375 L 380.402344 236.746094 L 380.539062 234.042969 L 380.402344 232.148438 L 380.675781 230.523438 L 380.808594 229.445312 L 383.238281 228.363281 L 384.730469 227.957031 L 386.351562 228.902344 L 387.570312 230.390625 L 388.785156 230.929688 L 391.085938 230.390625 L 392.574219 230.792969 L 394.601562 231.605469 L 396.359375 231.875 L 397.84375 232.28125 L 399.199219 231.742188 L 400.6875 232.011719 C 401.363281 232.011719 402.582031 232.824219 402.582031 232.824219 L 404.066406 234.582031 L 405.691406 235.527344 L 408.804688 236.746094 L 411.101562 237.421875 L 413.261719 238.097656 C 413.261719 238.097656 414.769531 239.507812 414.617188 239.042969 C 414.34375 238.230469 411.640625 236.472656 411.640625 236.472656 L 409.882812 236.203125 C 409.882812 236.203125 409.074219 236.070312 408.394531 235.664062 C 407.71875 235.253906 406.5 234.714844 406.5 234.714844 L 405.015625 233.773438 L 403.121094 232.824219 L 402.175781 231.605469 L 401.5 230.523438 C 401.5 230.523438 400.6875 230.929688 400.28125 230.253906 C 399.878906 229.578125 399.472656 228.902344 399.332031 228.226562 C 399.199219 227.550781 398.386719 226.875 398.386719 226.875 C 398.386719 226.875 397.304688 226.738281 396.628906 226.199219 C 395.953125 225.660156 395.414062 225.117188 394.738281 224.847656 C 394.0625 224.578125 392.710938 223.496094 392.710938 223.496094 C 392.710938 223.496094 391.628906 223.765625 391.355469 222.550781 C 391.085938 221.332031 390.679688 220.519531 390.542969 219.574219 C 390.40625 218.628906 391.085938 216.328125 391.085938 216.328125 L 392.03125 214.4375 L 394.0625 212.542969 C 394.0625 212.542969 402.445312 210.652344 402.984375 209.84375 C 403.527344 209.03125 406.773438 207.675781 406.773438 207.675781 L 409.746094 207.542969 L 412.722656 206.191406 L 415.429688 205.652344 L 418.671875 205.921875 L 421.105469 205.242188 L 425.027344 204.164062 L 440.175781 200.375 L 447.339844 198.617188 L 451.398438 197.808594 L 454.507812 196.726562 L 458.296875 196.59375 L 467.085938 191.457031 L 467.894531 190.375 C 467.894531 190.375 467.625 189.292969 467.492188 188.613281 C 467.355469 187.9375 467.492188 186.996094 467.492188 186.996094 C 467.492188 186.996094 468.574219 185.644531 469.519531 184.828125 C 470.46875 184.019531 475.742188 180.097656 475.875 179.421875 C 476.007812 178.746094 479.257812 173.878906 479.257812 173.878906 L 480.203125 171.445312 L 481.285156 169.148438 L 482.5 167.523438 L 482.90625 166.445312 C 482.90625 166.445312 491.292969 160.222656 491.425781 159.546875 C 491.5625 158.875 494.671875 156.441406 494.671875 156.441406 L 497.511719 154.140625 L 499.8125 151.4375 L 501.027344 149.140625 L 503.460938 146.300781 L 507.925781 137.648438 L 508.195312 133.726562 L 508.601562 130.886719 L 508.328125 128.859375 L 508.464844 127.101562 L 511.304688 127.238281 L 514.550781 128.046875 L 516.578125 128.320312 L 518.066406 129.265625 L 519.554688 130.886719 L 521.042969 131.96875 C 521.042969 131.96875 522.261719 134.402344 522.800781 134.945312 C 523.339844 135.484375 524.148438 136.160156 523.882812 136.832031 C 523.613281 137.511719 523.476562 138.863281 523.476562 139.40625 C 523.476562 139.945312 523.339844 140.757812 523.203125 141.835938 C 523.070312 142.921875 523.882812 143.460938 523.882812 143.460938 L 529.425781 142.511719 L 530.507812 144.542969 L 531.589844 146.707031 C 531.589844 146.707031 531.859375 146.839844 531.996094 147.515625 C 532.132812 148.195312 534.835938 149.679688 534.835938 149.679688 L 537.132812 151.4375 C 537.132812 151.4375 536.996094 152.652344 537.539062 153.058594 C 538.078125 153.464844 541.867188 152.25 542.003906 151.4375 C 542.140625 150.625 544.03125 148.597656 544.03125 148.597656 L 546.332031 146.707031 L 547.140625 143.054688 L 548.222656 139.8125 C 548.222656 139.8125 549.304688 138.460938 549.171875 137.917969 C 549.035156 137.375 549.171875 135.621094 549.035156 134.945312 C 548.902344 134.269531 546.738281 130.484375 546.601562 129.804688 C 546.464844 129.128906 546.601562 128.320312 546.332031 127.640625 C 546.058594 126.964844 545.925781 125.75 545.789062 125.074219 C 545.652344 124.398438 545.113281 123.046875 545.113281 123.046875 C 545.113281 123.046875 544.707031 121.964844 544.707031 121.019531 C 544.707031 120.074219 546.871094 119.125 546.871094 119.125 L 548.089844 118.179688 L 549.035156 116.828125 L 550.25 116.828125 L 551.605469 117.367188 L 553.363281 115.882812 L 554.445312 113.988281 L 555.527344 113.445312 C 555.527344 113.445312 555.933594 115.476562 555.933594 116.421875 C 555.933594 117.367188 555.796875 119.125 555.796875 120.074219 C 555.796875 121.019531 556.472656 123.449219 556.472656 124.53125 C 556.472656 125.617188 556.878906 128.589844 556.878906 128.589844 C 556.878906 128.589844 557.691406 129.402344 557.824219 130.074219 C 557.960938 130.753906 558.5 132.375 558.5 132.375 C 558.5 132.375 558.636719 135.621094 558.5 136.160156 C 558.367188 136.699219 558.367188 136.699219 558.367188 136.699219 L 563.371094 137.238281 L 566.34375 138.59375 C 566.34375 138.59375 567.289062 138.730469 567.429688 139.269531 C 567.5625 139.8125 568.644531 140.082031 568.644531 140.082031 L 569.863281 139.675781 C 569.863281 139.675781 571.347656 138.59375 570.671875 138.054688 C 569.996094 137.511719 568.917969 136.292969 568.238281 135.890625 C 567.5625 135.484375 567.695312 135.351562 567.429688 134.675781 C 567.15625 133.996094 567.15625 133.457031 567.15625 132.105469 C 567.15625 130.753906 567.5625 129.402344 567.429688 128.453125 C 567.289062 127.507812 567.023438 125.617188 567.023438 125.617188 L 566.074219 123.722656 C 566.074219 123.722656 565.128906 122.640625 565.128906 121.964844 C 565.128906 121.289062 565.398438 120.476562 565.128906 119.9375 C 564.855469 119.394531 564.992188 119.261719 564.316406 118.179688 C 563.640625 117.097656 562.695312 115.746094 562.695312 115.746094 C 562.695312 115.746094 562.15625 114.800781 561.613281 114.257812 C 561.070312 113.714844 560.394531 112.636719 560.394531 112.636719 L 562.964844 109.933594 L 564.992188 110.609375 L 567.289062 112.636719 L 570.941406 112.5 L 573.648438 110.472656 L 576.625 107.230469 L 577.839844 104.792969 L 579.324219 103.039062 C 579.324219 103.039062 580.273438 102.09375 580.003906 101.414062 C 579.730469 100.738281 579.324219 99.523438 579.324219 99.523438 C 579.324219 99.523438 579.601562 98.574219 578.378906 98.304688 C 577.164062 98.035156 576.757812 97.496094 575.542969 97.089844 C 574.324219 96.683594 573.511719 96.683594 572.566406 95.738281 C 571.617188 94.789062 571.753906 95.871094 570.941406 94.382812 C 570.132812 92.898438 569.863281 92.765625 569.863281 91.816406 C 569.863281 90.871094 571.480469 88.574219 571.480469 88.574219 L 575 86.410156 L 577.300781 83.839844 L 579.058594 81.8125 L 579.324219 80.054688 L 580.542969 78.839844 L 582.035156 81.40625 L 582.980469 82.894531 L 585.414062 83.707031 L 588.523438 84.109375 L 591.226562 83.027344 L 592.578125 81.8125 L 593.933594 79.242188 L 593.933594 75.996094 L 594.472656 73.972656 C 594.472656 73.972656 595.824219 72.078125 596.367188 71.671875 C 596.910156 71.265625 598.800781 70.183594 598.800781 70.183594 L 600.554688 68.835938 L 600.832031 64.777344 L 600.285156 62.074219 L 602.722656 63.019531 L 604.480469 61.667969 C 604.480469 61.667969 605.292969 60.453125 605.15625 59.914062 C 605.023438 59.371094 605.832031 57.882812 605.15625 57.882812 C 604.480469 57.882812 603.53125 57.613281 603.53125 57.613281 C 603.53125 57.613281 602.992188 56.800781 603.53125 55.855469 C 604.074219 54.910156 606.914062 52.472656 606.914062 52.472656 L 608.132812 51.125 L 609.347656 49.363281 L 610.972656 48.691406 L 612.863281 47.742188 L 611.917969 45.175781 L 618.546875 40.847656 L 620.300781 38.957031 L 620.839844 37.46875 L 621.921875 35.304688 L 624.765625 31.65625 L 625.710938 31.117188 L 626.523438 29.085938 L 625.441406 27.195312 L 625.847656 25.707031 L 627.0625 24.625 L 626.523438 23.542969 L 626.386719 22.328125 C 626.386719 22.328125 628.007812 21.109375 628.277344 20.300781 C 628.550781 19.484375 629.5 16.917969 629.5 16.917969 L 630.445312 14.890625 C 630.445312 14.890625 631.933594 15.296875 632.339844 15.835938 C 632.742188 16.378906 634.367188 18.40625 634.367188 19.082031 C 634.367188 19.757812 635.042969 20.976562 635.042969 21.789062 C 635.042969 22.597656 635.582031 23.675781 635.582031 24.488281 C 635.582031 25.300781 635.988281 25.570312 635.3125 26.925781 C 634.636719 28.273438 634.09375 29.085938 633.285156 30.304688 C 632.476562 31.519531 632.203125 32.195312 631.796875 33.007812 C 631.394531 33.816406 631.394531 35.984375 631.394531 35.984375 C 631.394531 35.984375 631.933594 37.199219 632.609375 36.929688 C 633.285156 36.65625 635.449219 34.765625 635.449219 34.765625 L 637.339844 33.007812 L 638.558594 31.117188 L 640.453125 29.761719 L 641.398438 28.816406 L 642.207031 26.382812 L 642.75 23.949219 L 644.511719 20.976562 C 644.511719 20.976562 643.558594 20.027344 643.425781 19.351562 C 643.289062 18.675781 643.832031 18.136719 643.832031 18.136719 L 648.429688 16.785156 L 650.59375 18 L 651.539062 19.082031 L 652.894531 19.621094 L 652.488281 22.597656 C 652.488281 22.597656 652.351562 22.867188 651.949219 23.8125 C 651.539062 24.757812 651.675781 25.300781 652.082031 25.976562 C 652.488281 26.652344 653.839844 28.410156 653.839844 28.410156 C 653.839844 28.410156 654.515625 29.085938 654.246094 29.898438 C 653.976562 30.710938 653.839844 30.710938 654.378906 31.792969 C 654.921875 32.871094 656.136719 33.953125 656.136719 33.953125 L 658.167969 34.222656 L 659.382812 35.171875 L 660.199219 36.929688 L 662.359375 36.929688 L 663.574219 36.523438 L 664.386719 33.816406 L 665.199219 34.089844 L 667.09375 37.738281 L 671.011719 39.902344 L 673.445312 42.066406 L 674.261719 43.824219 C 674.261719 43.824219 675.070312 45.714844 674.53125 47.066406 C 673.988281 48.417969 674.125 48.691406 674.125 49.636719 C 674.125 50.582031 674.9375 52.339844 673.582031 52.203125 C 672.234375 52.070312 671.691406 49.5 670.875 50.71875 C 670.066406 51.933594 669.390625 51.933594 669.390625 53.015625 C 669.390625 54.097656 669.121094 54.910156 670.066406 55.71875 C 671.011719 56.53125 671.957031 57.746094 671.957031 57.746094 C 671.957031 57.746094 672.363281 58.964844 671.957031 60.046875 C 671.554688 61.125 670.746094 62.34375 671.285156 62.75 C 671.824219 63.15625 672.777344 61.125 672.097656 63.695312 C 671.417969 66.265625 670.875 66.9375 672.5 66.804688 C 674.125 66.667969 676.558594 66.128906 676.558594 66.128906 L 678.589844 65.320312 L 679.941406 64.507812 L 681.5625 64.644531 C 681.5625 64.644531 682.375 65.453125 682.375 64.777344 C 682.375 64.101562 683.722656 61.667969 683.722656 61.667969 L 685.617188 61.125 C 685.617188 61.125 686.703125 60.992188 687.378906 61.261719 C 688.050781 61.53125 689.945312 63.5625 689.945312 63.5625 L 690.214844 65.859375 C 690.214844 65.859375 690.621094 66.9375 689.945312 67.753906 C 689.269531 68.566406 688.457031 70.183594 688.457031 70.183594 C 688.457031 70.183594 688.59375 71.402344 687.78125 70.996094 C 686.972656 70.589844 685.484375 69.78125 684.804688 69.914062 C 684.128906 70.050781 683.183594 70.589844 683.046875 70.996094 C 682.914062 71.402344 682.507812 71.671875 683.316406 72.347656 C 684.128906 73.023438 685.074219 73.160156 685.074219 73.699219 C 685.074219 74.242188 684.941406 75.320312 684.941406 75.726562 C 684.941406 76.132812 686.972656 76.269531 686.972656 76.269531 L 688.730469 75.59375 L 689.539062 76.675781 C 689.539062 76.675781 692.246094 75.863281 692.246094 75.1875 C 692.246094 74.511719 693.460938 74.105469 693.460938 74.105469 L 694.003906 72.210938 L 694.273438 70.726562 C 694.273438 70.726562 694.410156 69.105469 695.222656 69.242188 C 696.03125 69.375 697.789062 69.644531 697.789062 69.644531 L 698.734375 70.050781 L 702.25 70.589844 L 705.363281 71.265625 L 708.609375 73.835938 L 710.230469 74.917969 L 711.3125 76.40625 L 710.5 79.378906 L 711.449219 81.269531 L 713.070312 81.269531 L 714.289062 78.839844 L 715.640625 78.839844 L 718.34375 81.136719 L 720.644531 82.625 L 722.128906 84.515625 L 725.105469 86.542969 L 726.457031 87.492188 L 726.726562 88.4375 C 726.726562 88.4375 726.1875 89.652344 726.1875 90.058594 C 726.1875 90.464844 727.808594 90.328125 727.808594 90.328125 L 728.894531 89.515625 L 729.296875 88.300781 L 731.867188 88.84375 L 734.03125 88.707031 L 735.65625 88.167969 L 737.277344 86.410156 C 737.277344 86.410156 741.46875 89.515625 741.46875 90.328125 C 741.46875 91.140625 742.28125 91.140625 741.875 92.628906 C 741.46875 94.113281 741.605469 95.195312 741.46875 96.007812 C 741.332031 96.820312 742.414062 97.496094 742.011719 98.304688 C 741.605469 99.117188 738.222656 101.957031 736.871094 102.632812 C 735.519531 103.308594 732.949219 104.792969 732.949219 104.792969 C 732.949219 104.792969 732.136719 105.472656 730.652344 105.878906 C 729.164062 106.28125 730.515625 105.742188 728.351562 106.148438 C 726.1875 106.554688 727.136719 105.878906 725.648438 106.691406 C 724.160156 107.5 725.105469 107.09375 723.347656 108.039062 C 721.589844 108.984375 721.1875 110.609375 719.695312 110.335938 C 718.207031 110.066406 718.75 110.335938 716.992188 109.933594 C 715.234375 109.527344 712.257812 109.390625 712.257812 109.390625 L 710.5 110.609375 C 709.152344 111.285156 708.878906 111.285156 707.933594 110.472656 C 706.984375 109.664062 706.984375 109.121094 706.714844 108.171875 C 706.445312 107.230469 706.984375 106.960938 706.039062 106.691406 C 705.089844 106.417969 704.550781 106.28125 704.550781 106.28125 L 703.335938 107.09375 C 703.335938 107.09375 703.875 107.632812 703.199219 108.171875 C 702.523438 108.714844 701.578125 109.390625 700.761719 109.390625 C 699.957031 109.390625 698.734375 109.253906 698.734375 109.253906 L 696.570312 108.851562 C 696.570312 108.851562 696.03125 109.121094 695.492188 109.796875 C 694.953125 110.472656 695.222656 111.285156 694.410156 112.097656 C 693.597656 112.90625 692.921875 111.828125 693.597656 112.90625 C 694.273438 113.988281 695.355469 114.527344 696.300781 115.609375 C 697.246094 116.691406 697.382812 117.503906 697.652344 118.042969 C 697.925781 118.582031 697.925781 118.449219 698.058594 120.34375 C 698.195312 122.234375 699.003906 123.722656 699.546875 123.992188 C 700.085938 124.261719 701.171875 124.9375 701.847656 124.9375 C 702.523438 124.9375 703.46875 125.617188 703.46875 125.617188 L 705.089844 126.695312 L 706.984375 126.15625 L 709.011719 127.507812 L 709.152344 128.859375 C 709.152344 128.859375 707.664062 129.265625 707.796875 130.074219 C 707.933594 130.886719 709.152344 131.425781 709.691406 131.425781 C 710.230469 131.425781 711.449219 130.074219 711.449219 130.074219 L 713.070312 129.402344 L 714.558594 129.941406 L 715.234375 131.96875 L 715.371094 133.589844 C 715.371094 133.589844 715.234375 135.214844 714.289062 135.351562 C 713.339844 135.484375 713.070312 136.160156 711.988281 136.566406 C 710.90625 136.972656 710.097656 136.292969 709.691406 136.429688 C 709.285156 136.566406 701.171875 137.511719 701.171875 137.511719 L 694.273438 140.214844 C 694.273438 140.214844 692.246094 140.890625 691.296875 141.160156 C 690.351562 141.433594 690.621094 141.160156 689.539062 141.835938 C 688.457031 142.511719 688.050781 143.054688 686.972656 142.785156 C 685.890625 142.511719 686.296875 143.1875 684.671875 142.105469 C 683.046875 141.027344 683.046875 140.890625 682.507812 140.484375 C 681.96875 140.082031 681.429688 139.542969 680.886719 139.40625 C 680.347656 139.269531 679.535156 139 679.128906 138.324219 C 678.722656 137.648438 678.183594 137.917969 677.367188 137.375 C 676.558594 136.832031 675.070312 137.238281 674.53125 136.566406 C 673.988281 135.890625 672.5 134.808594 672.5 134.808594 C 672.5 134.808594 671.957031 134.539062 671.148438 134.808594 C 670.335938 135.082031 670.066406 134.539062 669.796875 135.621094 C 669.523438 136.699219 670.335938 137.238281 670.335938 137.238281 C 670.335938 137.238281 671.011719 138.324219 670.335938 138.460938 C 669.660156 138.59375 669.121094 137.78125 669.121094 139 C 669.121094 140.214844 669.660156 141.160156 670.746094 141.433594 C 671.824219 141.703125 672.777344 141.835938 672.777344 141.835938 C 672.777344 141.835938 672.777344 142.105469 672.5 142.785156 C 672.234375 143.460938 671.148438 143.734375 670.746094 144.273438 C 670.335938 144.8125 671.417969 144.273438 669.796875 144.675781 C 668.175781 145.082031 667.902344 145.21875 667.09375 145.351562 C 666.28125 145.488281 667.363281 146.707031 665.199219 145.621094 C 663.035156 144.542969 662.628906 144.273438 661.546875 143.460938 C 660.464844 142.648438 659.925781 141.835938 659.65625 141.160156 C 659.382812 140.484375 658.574219 139.675781 658.574219 139.675781 C 658.574219 139.675781 658.167969 139.8125 657.222656 139.132812 C 656.273438 138.460938 654.378906 136.429688 654.378906 136.429688 C 654.378906 136.429688 653.976562 135.753906 653.300781 136.160156 C 652.625 136.566406 652.214844 137.917969 650.863281 137.78125 C 649.511719 137.648438 650.457031 137.105469 648.292969 137.375 C 646.132812 137.648438 644.914062 137.511719 643.425781 137.648438 C 641.9375 137.78125 641.261719 137.917969 640.453125 137.648438 C 639.640625 137.375 639.503906 136.160156 638.558594 136.972656 C 637.609375 137.78125 636.9375 138.324219 635.988281 138.054688 C 635.042969 137.78125 635.3125 137.78125 634.09375 137.238281 C 632.878906 136.699219 631.527344 135.890625 631.527344 135.890625 C 631.527344 135.890625 631.660156 136.972656 630.988281 137.375 C 630.308594 137.78125 628.820312 136.972656 627.738281 137.511719 C 626.65625 138.054688 625.984375 138.054688 625.984375 138.054688 C 625.984375 138.054688 625.304688 135.351562 624.632812 135.621094 C 623.953125 135.890625 624.496094 135.484375 623.410156 136.160156 C 622.332031 136.832031 622.464844 137.648438 621.652344 138.460938 C 620.839844 139.269531 620.164062 139.542969 619.492188 139.8125 C 618.816406 140.082031 618.410156 140.351562 617.871094 139.675781 C 617.328125 139 615.976562 137.648438 615.4375 137.105469 C 614.894531 136.566406 614.757812 135.890625 614.082031 136.292969 C 613.402344 136.699219 610.703125 136.832031 610.703125 136.832031 L 606.914062 136.292969 C 606.914062 136.292969 606.238281 137.78125 606.101562 138.460938 C 605.96875 139.132812 607.320312 139 605.96875 139.132812 C 604.617188 139.269531 604.480469 139 603.671875 139.675781 C 602.859375 140.351562 603.671875 140.757812 602.992188 140.890625 C 602.320312 141.027344 601.097656 140.351562 600.285156 139.675781 C 599.476562 139 599.070312 138.59375 597.988281 138.460938 C 596.910156 138.324219 594.203125 136.699219 594.203125 136.699219 L 593.253906 139.132812 C 593.253906 139.132812 593.117188 142.378906 592.308594 142.785156 C 591.5 143.1875 590.550781 144.003906 590.550781 144.003906 L 588.390625 143.460938 C 587.035156 144.8125 586.222656 146.300781 585.683594 146.976562 C 585.140625 147.652344 584.601562 147.652344 584.601562 148.328125 C 584.601562 149.003906 584.871094 148.597656 584.601562 150.625 C 584.332031 152.652344 583.925781 152.921875 583.925781 153.328125 C 583.925781 153.738281 583.113281 156.441406 583.113281 156.441406 L 581.894531 156.847656 C 581.894531 156.847656 580.953125 156.167969 580.542969 156.707031 C 580.136719 157.25 579.867188 158.601562 579.867188 158.601562 C 579.867188 158.601562 581.355469 158.875 581.625 159.546875 C 581.894531 160.222656 582.304688 159.953125 582.167969 160.898438 C 582.035156 161.847656 581.625 162.390625 581.488281 163.199219 C 581.355469 164.011719 581.21875 164.683594 580.953125 165.363281 C 580.679688 166.035156 580.542969 168.742188 580.542969 169.957031 C 580.542969 171.175781 581.089844 173.335938 581.089844 173.335938 C 581.089844 173.335938 581.625 174.824219 581.625 175.367188 C 581.625 175.90625 583.113281 178.203125 583.113281 178.203125 L 583.386719 179.828125 L 581.488281 181.046875 C 581.488281 181.046875 581.625 180.234375 580.542969 180.503906 C 579.464844 180.773438 579.464844 180.234375 578.917969 182.53125 C 578.378906 184.828125 577.839844 187.535156 577.839844 187.535156 C 577.839844 187.535156 577.839844 187.9375 577.839844 189.019531 C 577.839844 190.105469 578.648438 190.777344 578.917969 191.457031 C 579.191406 192.128906 579.867188 193.078125 579.191406 193.617188 C 578.515625 194.160156 579.058594 193.753906 577.976562 195.105469 C 576.894531 196.457031 576.21875 196.1875 575.542969 196.996094 C 574.863281 197.808594 575.40625 198.886719 574.730469 199.296875 C 574.054688 199.703125 573.242188 198.753906 572.429688 199.296875 C 571.617188 199.835938 571.890625 201.054688 571.890625 201.054688 C 569.324219 201.460938 568.644531 200.648438 568.375 199.972656 C 568.101562 199.296875 567.023438 198.484375 567.023438 198.484375 C 566.074219 199.566406 565.800781 200.648438 565.800781 200.648438 L 564.316406 202.945312 L 561.746094 203.488281 C 561.746094 203.488281 560.9375 203.621094 560.667969 204.164062 C 560.394531 204.707031 561.070312 205.109375 560.9375 205.921875 C 560.800781 206.730469 559.585938 208.082031 559.585938 208.082031 L 558.5 208.355469 L 560.800781 210.25 C 560.800781 210.25 561.476562 210.382812 561.207031 211.058594 C 560.9375 211.734375 559.585938 213.355469 559.585938 213.355469 C 559.042969 214.167969 559.449219 214.707031 559.71875 215.25 C 559.988281 215.789062 561.070312 215.519531 560.125 216.328125 C 559.175781 217.144531 559.308594 216.058594 559.175781 217.144531 C 559.042969 218.222656 559.988281 219.304688 559.988281 219.304688 L 561.882812 219.03125 C 562.695312 218.496094 563.640625 219.441406 563.640625 219.441406 C 563.640625 219.441406 565.128906 219.980469 565.398438 220.925781 C 565.667969 221.875 568.101562 220.386719 565.800781 222.410156 C 563.503906 224.441406 563.777344 224.441406 562.964844 224.441406 C 562.15625 224.441406 563.101562 223.226562 562.15625 224.441406 C 561.207031 225.660156 560.125 226.332031 560.125 226.332031 L 557.011719 228.769531 L 555.933594 228.363281 L 554.851562 229.578125 L 553.90625 229.984375 L 552.6875 229.175781 L 552.6875 231.203125 C 552.6875 231.203125 552.957031 232.28125 552.550781 232.957031 C 552.144531 233.636719 551.738281 234.175781 550.65625 234.445312 C 549.578125 234.714844 546.871094 234.3125 546.871094 234.3125 C 546.871094 234.3125 546.058594 234.582031 545.519531 235.527344 C 544.976562 236.472656 543.761719 237.152344 543.21875 237.421875 C 542.679688 237.6875 543.085938 239.582031 543.085938 239.582031 L 544.84375 240.394531 L 546.332031 240.800781 C 546.332031 240.800781 546.464844 241.882812 546.195312 242.832031 C 545.925781 243.773438 545.925781 244.851562 545.925781 244.851562 L 547.546875 244.851562 C 547.546875 244.851562 549.304688 244.988281 549.304688 245.398438 C 549.304688 245.800781 548.628906 246.882812 548.363281 247.558594 C 548.089844 248.238281 548.089844 248.238281 548.089844 248.238281 C 548.089844 248.238281 549.578125 248.777344 549.035156 249.589844 C 548.496094 250.398438 547.007812 251.484375 547.007812 251.484375 L 546.058594 252.292969 C 546.058594 252.292969 546.058594 253.101562 545.519531 253.101562 C 544.976562 253.101562 543.488281 251.75 542.816406 252.832031 C 542.140625 253.914062 541.460938 254.183594 541.328125 254.996094 C 541.195312 255.808594 541.460938 257.699219 541.460938 257.699219 C 541.460938 257.699219 542.679688 257.835938 542.410156 259.183594 C 542.140625 260.539062 542.679688 262.023438 542.003906 262.835938 C 541.328125 263.644531 539.164062 264.59375 539.164062 264.59375 C 539.164062 264.59375 537.539062 264.457031 537.132812 265.542969 C 536.730469 266.625 536.996094 267.296875 536.730469 268.246094 C 536.457031 269.191406 536.59375 269.867188 535.78125 270.542969 C 534.972656 271.21875 535.242188 271.085938 534.160156 271.355469 C 533.078125 271.625 529.695312 269.597656 528.886719 269.324219 C 528.074219 269.054688 527.128906 268.378906 527.128906 268.378906 C 527.128906 268.378906 522.933594 271.355469 522.394531 271.761719 C 521.855469 272.164062 518.882812 273.382812 518.882812 273.382812 C 518.882812 273.382812 518.605469 273.652344 517.796875 273.246094 C 516.984375 272.839844 516.171875 272.164062 516.171875 272.164062 L 513.875 271.894531 C 513.875 271.894531 513.199219 272.570312 511.578125 272.703125 C 509.949219 272.839844 510.222656 273.109375 509.007812 273.246094 C 507.789062 273.382812 506.574219 273.789062 506.574219 273.789062 C 506.574219 273.789062 505.359375 273.921875 504 274.734375 C 502.648438 275.546875 501.566406 277.164062 501.566406 277.164062 C 501.027344 278.113281 498.597656 280.28125 497.511719 280.683594 C 496.433594 281.089844 493.996094 282.4375 493.996094 282.4375 C 492.507812 282.980469 491.5625 282.980469 491.019531 282.035156 C 490.480469 281.089844 489.53125 279.328125 489.53125 279.328125 C 489.53125 279.328125 489.53125 278.382812 488.585938 278.519531 C 487.640625 278.65625 486.425781 277.976562 485.207031 278.65625 C 483.988281 279.328125 484.53125 280.683594 483.039062 279.464844 C 481.554688 278.25 479.527344 277.4375 479.527344 277.4375 C 479.527344 277.4375 478.988281 277.164062 478.175781 276.492188 C 477.367188 275.816406 476.550781 274.867188 475.875 274.867188 C 475.199219 274.867188 472.359375 275.410156 472.359375 275.410156 C 472.359375 275.410156 470.332031 275.140625 469.652344 275.003906 C 468.980469 274.867188 468.574219 274.058594 468.167969 273.652344 C 467.761719 273.246094 467.492188 272.570312 466.8125 272.839844 C 466.136719 273.109375 464.921875 274.058594 464.113281 273.921875 C 463.296875 273.789062 462.351562 272.300781 462.351562 272.300781 C 462.351562 272.300781 463.976562 271.625 464.921875 270.140625 C 465.867188 268.652344 466.003906 267.703125 466.003906 267.703125 C 466.003906 267.703125 464.789062 267.839844 463.570312 267.433594 C 462.351562 267.027344 462.085938 266.757812 460.996094 266.488281 C 459.917969 266.21875 459.917969 266.355469 459.242188 266.21875 C 458.566406 266.082031 458.703125 263.917969 457.621094 265.402344 C 456.539062 266.894531 457.078125 266.625 455.996094 267.164062 C 454.914062 267.703125 455.320312 267.566406 453.964844 267.433594 C 452.613281 267.296875 451.535156 266.625 450.996094 266.625 C 450.453125 266.625 443.691406 267.027344 443.691406 267.027344 L 439.769531 266.625 C 438.550781 267.296875 436.929688 268.652344 436.929688 268.652344 C 436.929688 268.652344 433.953125 269.597656 433.007812 269.734375 C 432.058594 269.867188 432.464844 269.597656 431.25 270.410156 C 430.03125 271.21875 429.222656 271.761719 428.273438 272.433594 C 427.328125 273.109375 427.191406 272.839844 427.460938 274.191406 C 427.734375 275.546875 429.089844 276.085938 428.816406 276.625 C 428.542969 277.164062 428.003906 277.710938 426.921875 278.925781 C 425.839844 280.144531 426.246094 279.195312 425.570312 281.089844 C 424.890625 282.980469 425.570312 282.710938 425.296875 284.199219 C 425.027344 285.683594 423.542969 285.683594 422.867188 286.496094 C 422.191406 287.308594 421.242188 287.171875 419.617188 287.171875 C 417.996094 287.171875 417.996094 285.550781 416.78125 286.496094 C 415.566406 287.441406 414.886719 286.226562 414.210938 287.441406 C 413.535156 288.660156 413.128906 291.089844 412.316406 291.5 C 411.503906 291.902344 412.179688 291.765625 410.152344 292.445312 C 408.128906 293.125 407.179688 293.125 407.179688 293.125 C 407.179688 293.125 405.015625 292.039062 404.472656 291.902344 C 403.933594 291.765625 403.527344 291.226562 402.582031 291.226562 C 401.636719 291.226562 402.175781 290.148438 401.09375 291.089844 C 400.015625 292.039062 399.878906 293.253906 398.792969 293.933594 C 397.710938 294.609375 397.574219 294.066406 396.898438 294.339844 C 396.222656 294.609375 395.550781 294.878906 394.738281 293.933594 C 393.925781 292.984375 394.601562 291.632812 393.925781 291.902344 C 393.25 292.171875 392.84375 292.171875 390.679688 292.582031 C 388.515625 292.984375 389.058594 293.523438 387.84375 292.714844 C 386.621094 291.902344 385.273438 291.089844 384.1875 290.6875 C 383.105469 290.28125 383.375 290.148438 382.429688 289.742188 C 381.484375 289.335938 379.050781 290.6875 378.511719 290.957031 C 377.96875 291.226562 374.992188 291.765625 374.992188 291.765625 C 374.992188 291.765625 374.992188 291.632812 373.640625 291.632812 C 372.289062 291.632812 369.855469 291.902344 369.855469 291.902344 C 369.855469 291.902344 368.636719 293.253906 367.554688 293.125 C 366.472656 292.984375 366.339844 292.984375 365.796875 294.066406 C 365.257812 295.148438 365.664062 294.746094 364.308594 295.824219 C 362.957031 296.902344 362.957031 296.902344 362.957031 296.902344 C 362.957031 296.902344 363.09375 297.851562 362.28125 298.125 C 361.46875 298.394531 360.523438 297.851562 359.847656 297.71875 C 359.171875 297.582031 359.171875 297.175781 358.496094 297.988281 C 357.820312 298.800781 357.144531 299.878906 356.332031 299.878906 C 355.519531 299.878906 351.464844 299.878906 351.464844 299.878906 L 349.976562 299.746094 C 349.976562 299.746094 349.164062 300.015625 348.214844 299.070312 C 347.269531 298.125 347.539062 298.933594 345.921875 297.3125 C 344.296875 295.6875 344.164062 295.824219 343.890625 295.011719 C 343.621094 294.203125 343.621094 294.203125 343.621094 294.203125 C 343.621094 294.203125 342.132812 293.933594 340.238281 293.660156 C 338.34375 293.390625 338.214844 293.933594 337.671875 293.253906 C 337.128906 292.582031 337.128906 291.765625 336.992188 291.089844 C 336.859375 290.417969 336.726562 290.148438 336.316406 289.199219 C 335.910156 288.25 335.640625 287.710938 335.640625 287.710938 L 334.289062 286.496094 L 333.882812 285.011719 L 333.207031 284.332031 C 333.207031 284.332031 331.855469 284.199219 330.503906 284.0625 C 329.148438 283.929688 329.285156 284.199219 328.335938 283.65625 C 327.390625 283.117188 326.984375 283.117188 327.121094 282.304688 C 327.257812 281.492188 328.203125 280.816406 327.527344 280.816406 C 326.847656 280.816406 326.445312 281.089844 325.230469 280.28125 C 324.011719 279.464844 324.414062 280.550781 324.011719 279.464844 C 323.605469 278.382812 323.46875 275.953125 323.46875 275.953125 L 323.0625 275.140625 L 320.222656 274.058594 L 317.789062 273.789062 C 317.789062 273.789062 316.84375 273.652344 316.710938 272.976562 C 316.574219 272.300781 316.980469 271.21875 316.980469 271.21875 C 316.980469 271.21875 315.761719 271.761719 314.542969 271.085938 C 313.328125 270.410156 312.652344 269.734375 311.839844 269.054688 C 311.027344 268.378906 309.136719 266.488281 308.996094 265.679688 C 308.867188 264.867188 308.730469 264.050781 308.867188 263.644531 C 308.996094 263.242188 310.355469 257.835938 310.355469 257.835938 L 308.996094 257.429688 C 308.996094 257.429688 306.160156 257.160156 305.890625 256.617188 C 305.617188 256.078125 305.347656 255.941406 305.214844 255.265625 C 305.078125 254.589844 304.539062 252.699219 304.539062 252.699219 L 304 250.535156 " fill-opacity="1" fill-rule="nonzero"/></g><path fill="#a6a6a6" d="M 385.542969 220.386719 C 385.542969 220.386719 384.867188 218.089844 384.730469 217.542969 C 384.59375 217.003906 385.132812 212.949219 385.132812 212.949219 L 385.949219 211.058594 L 386.761719 210.921875 L 387.570312 211.597656 L 388.785156 212.949219 L 389.328125 214.300781 L 389.734375 215.789062 L 389.328125 220.792969 L 389.191406 222.953125 L 389.328125 224.441406 L 389.460938 226.199219 L 389.734375 227.820312 L 389.191406 228.902344 L 388.113281 228.632812 L 386.761719 228.09375 C 386.761719 228.09375 385.8125 227.417969 385.542969 226.605469 C 385.273438 225.792969 385.40625 224.984375 385.40625 224.984375 L 385.542969 220.386719 " fill-opacity="1" fill-rule="nonzero"/><path fill="#a6a6a6" d="M 391.222656 225.253906 L 393.113281 225.253906 L 394.46875 225.792969 L 395.683594 226.875 L 397.035156 227.28125 L 398.65625 228.226562 L 399.472656 229.308594 L 400.28125 230.253906 L 398.117188 230.523438 L 397.035156 230.253906 L 395.414062 230.523438 L 393.523438 229.847656 C 393.523438 229.847656 392.710938 229.578125 392.4375 229.175781 C 392.167969 228.769531 392.03125 228.902344 391.628906 228.363281 C 391.222656 227.820312 391.222656 226.332031 391.222656 226.332031 L 391.222656 225.253906 " fill-opacity="1" fill-rule="nonzero"/><path fill="#a6a6a6" d="M 564.316406 90.058594 L 565.800781 93.167969 L 566.074219 94.652344 C 566.074219 94.652344 566.074219 96.414062 565.261719 96.550781 C 564.449219 96.683594 563.910156 97.496094 563.101562 97.226562 C 562.289062 96.953125 560.800781 97.226562 560.800781 97.226562 C 560.800781 97.226562 560.257812 96.007812 560.667969 95.195312 C 561.070312 94.382812 564.316406 90.058594 564.316406 90.058594 " fill-opacity="1" fill-rule="nonzero"/><g clip-path="url(#id2)"><path fill="#a6a6a6" d="M 635.175781 7.320312 C 634.90625 7.050781 636.257812 3.808594 636.257812 3.808594 L 637.207031 3.128906 L 638.828125 2.722656 L 640.183594 0.964844 L 641.261719 0.289062 L 641.667969 1.234375 L 642.34375 3.535156 L 641.53125 5.15625 L 640.316406 4.617188 L 640.046875 5.695312 C 640.046875 5.695312 639.097656 6.238281 638.425781 6.507812 C 637.746094 6.78125 636.800781 7.050781 636.800781 7.050781 L 635.582031 7.996094 C 634.769531 8.402344 635.175781 7.320312 635.175781 7.320312 " fill-opacity="1" fill-rule="nonzero"/></g><g clip-path="url(#id3)"><path fill="#a6a6a6" d="M 644.238281 2.996094 L 647.347656 1.234375 L 650.054688 0.421875 L 651.675781 0.152344 C 651.675781 0.152344 652.894531 0.152344 652.894531 0.558594 C 652.894531 0.964844 653.164062 2.859375 653.164062 2.859375 L 652.894531 5.019531 L 653.164062 6.105469 C 653.164062 6.105469 654.515625 6.371094 654.109375 6.78125 C 653.703125 7.183594 651.539062 8.941406 651.539062 8.941406 C 651.539062 8.941406 650.863281 8.539062 649.917969 8.539062 C 648.96875 8.539062 648.835938 7.996094 648.160156 8.539062 C 647.484375 9.078125 645.863281 11.238281 645.863281 11.238281 C 644.375 11.511719 643.425781 10.835938 643.289062 10.023438 C 643.15625 9.210938 643.695312 7.320312 643.695312 7.320312 L 643.832031 5.832031 L 644.238281 2.996094 " fill-opacity="1" fill-rule="nonzero"/></g><path fill="#a6a6a6" d="M 653.4375 14.214844 C 653.4375 13.808594 654.378906 13 654.378906 13 L 655.730469 13.132812 L 656.816406 14.347656 L 655.867188 15.835938 L 654.246094 16.105469 L 653.164062 15.160156 L 653.4375 14.214844 " fill-opacity="1" fill-rule="nonzero"/><path fill="#a6a6a6" d="M 659.65625 28.410156 L 661.546875 27.332031 L 662.898438 27.195312 L 663.574219 28.410156 L 664.253906 29.898438 L 663.441406 32.195312 C 663.441406 32.195312 662.761719 33.546875 661.683594 33.277344 C 660.601562 33.007812 659.25 32.601562 659.25 32.601562 L 657.488281 32.195312 C 657.488281 32.195312 656.273438 32.195312 656.273438 31.519531 C 656.273438 30.84375 658.574219 30.304688 658.574219 30.304688 L 659.792969 30.167969 L 660.738281 29.625 L 659.65625 28.410156 " fill-opacity="1" fill-rule="nonzero"/><path fill="#a6a6a6" d="M 704.414062 122.503906 C 704.832031 122.40625 706.984375 122.640625 706.984375 122.640625 L 707.257812 121.828125 L 708.203125 121.828125 L 709.285156 123.316406 L 710.636719 123.589844 L 712.257812 123.722656 L 712.664062 124.667969 C 712.664062 124.667969 712.664062 125.480469 711.851562 125.480469 C 711.042969 125.480469 710.230469 125.347656 709.554688 125.210938 C 708.878906 125.074219 707.257812 124.804688 707.257812 124.804688 L 705.902344 124.53125 L 704.550781 123.859375 C 704.550781 123.859375 701.578125 123.179688 704.414062 122.503906 " fill-opacity="1" fill-rule="nonzero"/><path fill="#a6a6a6" d="M 716.453125 130.484375 L 717.804688 130.214844 L 719.019531 131.15625 L 719.292969 133.050781 L 717.667969 134.808594 L 716.453125 134.132812 L 715.914062 132.375 L 715.640625 131.292969 L 716.453125 130.484375 " fill-opacity="1" fill-rule="nonzero"/><path fill="#a6a6a6" d="M 673.582031 142.105469 C 673.71875 141.160156 674.53125 140.890625 674.53125 140.890625 C 674.53125 140.890625 675.476562 140.351562 675.882812 140.621094 C 676.285156 140.890625 678.046875 141.972656 678.046875 141.972656 L 679.941406 143.1875 L 682.101562 144.542969 C 682.101562 144.542969 682.507812 145.488281 681.832031 145.488281 C 681.160156 145.488281 679.667969 145.621094 678.992188 145.351562 C 678.316406 145.082031 675.746094 146.300781 674.125 145.890625 C 672.5 145.488281 672.777344 146.433594 672.5 145.488281 C 672.234375 144.542969 672.5 142.785156 672.5 142.785156 L 673.582031 142.105469 " fill-opacity="1" fill-rule="nonzero"/><path fill="#a6a6a6" d="M 150.269531 73.972656 C 150.269531 73.972656 148.914062 75.050781 148.105469 75.050781 C 147.292969 75.050781 145.671875 75.050781 145.671875 75.050781 L 145.671875 71.808594 L 147.835938 70.726562 L 150.269531 72.078125 L 150.269531 73.972656 " fill-opacity="1" fill-rule="nonzero"/></svg>