<svg xmlns="http://www.w3.org/2000/svg" xmlns:xlink="http://www.w3.org/1999/xlink" width="500" zoomAndPan="magnify" viewBox="0 0 375 374.999991" height="500" preserveAspectRatio="xMidYMid meet" version="1.0"><path fill="#ffcc4d" d="M 306.898438 374.992188 L 306.429688 374.992188 C 242.894531 372.960938 168.25 311.152344 116.777344 259.664062 C 65.296875 208.175781 3.503906 133.519531 1.496094 70.238281 C 0.8125 48.832031 55.117188 9.128906 55.667969 8.742188 C 67.773438 0.304688 84.046875 1.90625 90.667969 11.0625 C 95.007812 17.070312 136.511719 79.992188 141.050781 87.15625 C 145.535156 94.21875 144.828125 104.84375 139.160156 115.585938 C 135.878906 121.835938 124.761719 141.367188 119.925781 149.851562 C 125.042969 157.261719 139.398438 176.375 169.730469 206.710938 C 200.246094 237.21875 219.21875 251.457031 226.585938 256.546875 C 235.074219 251.703125 254.613281 240.582031 260.878906 237.285156 C 271.265625 231.800781 282.074219 231.003906 289.175781 235.335938 C 296.628906 239.894531 359.40625 281.636719 365.269531 285.730469 C 369.875 288.957031 372.851562 294.523438 373.421875 301.019531 C 374.011719 307.648438 371.972656 314.671875 367.679688 320.804688 C 367.285156 321.339844 328.074219 374.992188 306.898438 374.992188 Z M 306.898438 374.992188 " fill-opacity="1" fill-rule="nonzero"/></svg>