<svg xmlns="http://www.w3.org/2000/svg" xmlns:xlink="http://www.w3.org/1999/xlink" width="500" zoomAndPan="magnify" viewBox="0 0 375 377.249997" height="503" preserveAspectRatio="xMidYMid meet" version="1.0"><defs><clipPath id="id1"><path d="M 0.371094 0 L 374.628906 0 L 374.628906 376.5 L 0.371094 376.5 Z M 0.371094 0 " clip-rule="nonzero"/></clipPath><clipPath id="id2"><path d="M 136.402344 103.171875 L 238.914062 103.171875 L 238.914062 273 L 136.402344 273 Z M 136.402344 103.171875 " clip-rule="nonzero"/></clipPath></defs><g clip-path="url(#id1)"><path fill="#ffffff" d="M 187.5 0.00390625 C 84.152344 0.00390625 0.371094 84.285156 0.371094 188.25 C 0.371094 292.21875 84.152344 376.5 187.5 376.5 C 290.847656 376.5 374.628906 292.21875 374.628906 188.25 C 374.628906 84.285156 290.847656 0.00390625 187.5 0.00390625 " fill-opacity="1" fill-rule="nonzero"/></g><g clip-path="url(#id2)"><path fill="#2a2a2a" d="M 154.265625 272.898438 L 238.898438 188.410156 L 153.675781 103.335938 L 136.347656 120.632812 L 204.242188 188.410156 L 136.9375 255.601562 L 154.265625 272.898438 " fill-opacity="1" fill-rule="nonzero"/></g></svg>