<svg xmlns="http://www.w3.org/2000/svg" xmlns:xlink="http://www.w3.org/1999/xlink" width="500" zoomAndPan="magnify" viewBox="0 0 375 374.999991" height="500" preserveAspectRatio="xMidYMid meet" version="1.0"><path fill="#ffffff" d="M 187.5 0 C 84.375 0 0 84.375 0 187.5 C 0 290.625 84.375 375 187.5 375 C 290.625 375 375 290.625 375 187.5 C 375 84.375 290.625 0 187.5 0 Z M 187.5 23.4375 C 278.90625 23.4375 351.5625 96.09375 351.5625 187.5 C 351.5625 227.34375 337.5 262.5 314.0625 290.625 C 307.03125 288.28125 302.34375 283.59375 295.3125 283.59375 L 243.75 274.21875 C 239.0625 274.21875 234.375 267.1875 234.375 262.5 L 234.375 250.78125 C 236.71875 246.09375 241.40625 239.0625 243.75 234.375 C 246.09375 229.6875 250.78125 222.65625 253.125 220.3125 C 262.5 210.9375 274.21875 199.21875 276.5625 182.8125 C 278.90625 168.75 276.5625 161.71875 274.21875 154.6875 C 274.21875 140.625 274.21875 121.875 269.53125 107.8125 C 269.53125 89.0625 264.84375 79.6875 257.8125 70.3125 C 250.78125 63.28125 243.75 63.28125 236.71875 60.9375 C 234.375 60.9375 229.6875 60.9375 229.6875 58.59375 C 213.28125 51.5625 201.5625 46.875 187.5 46.875 C 157.03125 49.21875 117.1875 67.96875 105.46875 103.125 C 100.78125 112.5 100.78125 131.25 103.125 145.3125 L 103.125 154.6875 C 98.4375 159.375 96.09375 166.40625 98.4375 180.46875 C 100.78125 194.53125 112.5 206.25 121.875 217.96875 C 124.21875 220.3125 126.5625 227.34375 131.25 232.03125 C 133.59375 239.0625 138.28125 243.75 140.625 248.4375 L 140.625 260.15625 C 140.625 264.84375 135.9375 269.53125 131.25 271.875 L 79.6875 281.25 C 72.65625 283.59375 65.625 285.9375 60.9375 288.28125 C 37.5 262.5 23.4375 227.34375 23.4375 187.5 C 23.4375 96.09375 96.09375 23.4375 187.5 23.4375 Z M 187.5 23.4375 " fill-opacity="1" fill-rule="nonzero"/></svg>