<svg xmlns="http://www.w3.org/2000/svg" xmlns:xlink="http://www.w3.org/1999/xlink" width="500" zoomAndPan="magnify" viewBox="0 0 375 374.999991" height="500" preserveAspectRatio="xMidYMid meet" version="1.0"><path fill="#ffcc4d" d="M 261.15625 229.320312 C 262.316406 215.753906 262.933594 201.753906 262.933594 187.488281 C 262.933594 171.917969 262.207031 156.644531 260.820312 141.925781 L 343.503906 141.925781 C 347.742188 156.390625 350.054688 171.675781 350.054688 187.488281 C 350.054688 201.953125 348.125 215.964844 344.566406 229.320312 Z M 230.472656 344.253906 C 235.074219 336.582031 239.550781 327.128906 243.746094 315.472656 C 250.15625 297.648438 255.058594 276.835938 258.3125 254.230469 L 335.660156 254.230469 C 315.90625 297.914062 277.421875 331.355469 230.472656 344.253906 Z M 187.476562 350.066406 C 171.980469 350.066406 151.207031 314.230469 141.863281 254.230469 L 233.101562 254.230469 C 223.75 314.230469 202.984375 350.066406 187.476562 350.066406 Z M 39.296875 254.230469 L 116.652344 254.230469 C 119.898438 276.835938 124.800781 297.648438 131.21875 315.472656 C 135.414062 327.128906 139.894531 336.582031 144.492188 344.253906 C 97.546875 331.363281 59.046875 297.914062 39.296875 254.230469 Z M 24.910156 187.488281 C 24.910156 171.675781 27.222656 156.390625 31.460938 141.925781 L 114.132812 141.925781 C 112.757812 156.644531 112.03125 171.917969 112.03125 187.488281 C 112.03125 201.753906 112.648438 215.753906 113.800781 229.320312 L 30.390625 229.320312 C 26.832031 215.964844 24.910156 201.953125 24.910156 187.488281 Z M 144.492188 30.730469 C 139.894531 38.40625 135.414062 47.859375 131.21875 59.515625 C 125.164062 76.347656 120.441406 95.847656 117.199219 117.015625 L 40.992188 117.015625 C 61.222656 75.144531 98.890625 43.257812 144.492188 30.730469 Z M 187.476562 24.917969 C 202.652344 24.917969 222.871094 59.28125 232.484375 117.015625 L 142.480469 117.015625 C 152.09375 59.28125 172.304688 24.917969 187.476562 24.917969 Z M 238.023438 187.488281 C 238.023438 202.269531 237.347656 216.230469 236.144531 229.320312 L 138.8125 229.320312 C 137.617188 216.230469 136.941406 202.269531 136.941406 187.488281 C 136.941406 171.304688 137.75 156.078125 139.175781 141.925781 L 235.789062 141.925781 C 237.214844 156.078125 238.023438 171.304688 238.023438 187.488281 Z M 333.960938 117.015625 L 257.769531 117.015625 C 254.523438 95.847656 249.800781 76.347656 243.746094 59.515625 C 239.550781 47.859375 235.074219 38.40625 230.472656 30.730469 C 276.074219 43.257812 313.742188 75.144531 333.960938 117.015625 Z M 187.476562 0.0117188 C 84.101562 0.0117188 0 84.121094 0 187.488281 C 0 290.867188 84.101562 374.976562 187.476562 374.976562 C 290.855469 374.976562 374.964844 290.867188 374.964844 187.488281 C 374.964844 84.121094 290.855469 0.0117188 187.476562 0.0117188 " fill-opacity="1" fill-rule="nonzero"/></svg>