<svg xmlns="http://www.w3.org/2000/svg" xmlns:xlink="http://www.w3.org/1999/xlink" width="810" zoomAndPan="magnify" viewBox="0 0 607.5 749.999995" height="1000" preserveAspectRatio="xMidYMid meet" version="1.0"><path fill="#a6a6a6" d="M 9.886719 57.40625 C 9.886719 57.40625 7.527344 58.972656 5.167969 56.613281 C 2.816406 54.25 1.238281 51.109375 1.238281 51.109375 L 3.597656 46.394531 L 9.886719 45.601562 L 14.609375 48.757812 L 19.320312 49.539062 L 21.679688 44.035156 C 25.609375 43.25 28.761719 42.460938 28.761719 42.460938 L 32.6875 47.964844 L 34.265625 53.46875 C 36.617188 57.40625 34.265625 62.117188 34.265625 62.117188 C 30.328125 64.476562 25.609375 62.902344 25.609375 62.902344 L 20.105469 63.691406 L 14.609375 70.765625 C 9.101562 68.40625 7.527344 63.691406 7.527344 63.691406 L 9.886719 57.40625 " fill-opacity="1" fill-rule="nonzero"/><path fill="#a6a6a6" d="M 7.527344 58.972656 C 2.023438 58.972656 2.023438 58.972656 2.023438 58.972656 L 1.238281 51.109375 " fill-opacity="1" fill-rule="nonzero"/><path fill="#a6a6a6" d="M 24.4375 68.800781 L 25.609375 74.691406 L 26.402344 80.988281 L 22.859375 84.132812 C 22.859375 84.132812 20.105469 83.738281 18.933594 81.773438 C 17.75 79.808594 18.535156 75.882812 18.535156 75.882812 L 21.679688 72.730469 L 24.4375 68.800781 " fill-opacity="1" fill-rule="nonzero"/><path fill="#a6a6a6" d="M 69.253906 30.667969 C 69.253906 30.667969 71.210938 24.773438 70.824219 23.59375 C 70.425781 22.414062 68.859375 20.441406 68.859375 20.441406 L 69.253906 15.332031 L 71.605469 10.621094 C 73.578125 9.828125 77.507812 12.585938 77.507812 12.585938 L 79.074219 14.550781 L 84.191406 10.621094 L 86.542969 14.945312 L 88.121094 18.875 L 87.335938 24.773438 L 89.300781 30.277344 L 94.019531 33.421875 L 98.734375 35.386719 L 102.667969 37.746094 L 106.992188 36.953125 L 110.921875 41.277344 C 114.066406 43.640625 120.75 43.640625 120.75 43.640625 L 126.652344 44.421875 C 129.011719 46.394531 136.082031 40.496094 136.082031 40.496094 L 139.226562 38.136719 L 142.769531 40.882812 L 144.730469 45.214844 L 148.660156 47.566406 C 148.660156 47.566406 151.019531 51.890625 150.632812 53.46875 C 150.234375 55.042969 151.417969 60.152344 151.417969 60.152344 L 152.597656 65.65625 L 155.742188 71.558594 C 158.496094 72.339844 162.425781 71.558594 162.425781 71.558594 L 165.964844 74.691406 L 170.28125 67.621094 C 173.433594 70.765625 176.578125 73.511719 176.578125 73.511719 L 181.6875 71.160156 C 181.6875 71.160156 184.832031 69.585938 186.011719 71.945312 C 187.191406 74.304688 191.117188 77.449219 188.757812 79.027344 C 186.40625 80.59375 183.261719 83.351562 180.507812 84.917969 C 177.757812 86.484375 177.363281 88.457031 178.9375 89.242188 C 180.507812 90.027344 186.011719 92.386719 186.011719 92.386719 C 186.011719 92.386719 189.15625 93.964844 187.972656 95.925781 C 186.804688 97.890625 185.226562 100.25 184.441406 102.214844 C 183.648438 104.179688 186.011719 104.574219 186.011719 106.9375 C 186.011719 109.296875 184.832031 112.042969 183.261719 114.007812 C 181.6875 115.972656 181.289062 118.339844 178.9375 118.730469 C 176.578125 119.117188 173.039062 117.160156 171.855469 117.945312 C 170.675781 118.730469 171.46875 118.730469 170.675781 121.871094 C 169.894531 125.027344 169.894531 128.558594 169.496094 130.132812 C 169.109375 131.703125 170.28125 132.484375 171.855469 134.84375 C 173.433594 137.207031 180.109375 142.3125 180.109375 142.3125 C 180.109375 142.3125 183.648438 145.464844 184.441406 147.429688 C 185.226562 149.394531 186.40625 153.71875 186.40625 153.71875 L 189.15625 156.476562 L 193.875 152.933594 L 200.164062 150.179688 L 201.730469 148.214844 L 201.730469 143.503906 L 202.128906 137.601562 L 203.703125 133.675781 L 207.632812 131.703125 L 214.710938 131.3125 L 217.460938 126.988281 L 219.035156 124.628906 L 224.144531 122.664062 L 232.007812 123.449219 L 235.9375 123.054688 L 241.441406 117.546875 L 245.371094 114.800781 C 245.371094 114.800781 248.910156 116.765625 249.304688 118.339844 C 249.703125 119.910156 252.847656 123.835938 252.847656 123.835938 C 252.847656 123.835938 257.558594 123.449219 257.171875 125.414062 C 256.773438 127.378906 255.59375 132.097656 255.59375 134.0625 C 255.59375 136.027344 256.378906 142.3125 257.171875 139.566406 C 257.953125 136.808594 265.421875 135.628906 265.421875 135.628906 L 270.53125 136.027344 L 275.25 140.746094 L 279.179688 138.386719 L 284.289062 131.3125 L 289.40625 126.59375 L 291.765625 123.054688 L 291.765625 110.476562 L 297.664062 101.042969 L 302.378906 94.351562 L 309.0625 86.097656 L 312.207031 81.773438 L 310.636719 76.65625 L 316.925781 76.269531 L 322.429688 78.628906 L 329.117188 79.027344 C 329.117188 79.027344 333.441406 79.808594 336.1875 80.59375 C 338.945312 81.386719 343.65625 84.132812 343.65625 84.132812 C 343.65625 84.132812 347.195312 88.457031 347.195312 90.027344 C 347.195312 91.601562 350.738281 98.675781 351.125 100.648438 C 351.519531 102.613281 355.050781 107.71875 355.050781 109.296875 C 355.050781 110.863281 364.097656 123.449219 366.0625 125.027344 C 368.035156 126.59375 372.359375 131.3125 372.359375 131.3125 L 377.464844 135.242188 C 377.464844 135.242188 383.367188 140.351562 384.152344 142.3125 C 384.933594 144.277344 389.257812 149.394531 389.257812 149.394531 L 397.914062 155.683594 C 397.914062 155.683594 406.167969 161.972656 408.132812 162.753906 C 410.097656 163.546875 420.3125 169.050781 420.3125 169.050781 L 427.394531 174.160156 C 427.394531 174.160156 432.113281 178.484375 433.292969 180.449219 C 434.472656 182.414062 439.1875 188.710938 439.976562 190.285156 C 440.761719 191.855469 458.457031 222.125 458.457031 224.484375 C 458.457031 226.84375 467.105469 237.457031 467.105469 240.203125 C 467.105469 242.960938 472.996094 252.789062 472.996094 252.789062 L 477.714844 261.042969 L 482.429688 268.511719 C 482.429688 268.511719 482.824219 272.449219 482.039062 275.195312 C 481.257812 277.953125 482.039062 279.132812 481.644531 283.058594 C 481.257812 286.988281 482.824219 286.601562 483.222656 290.140625 C 483.609375 293.671875 485.582031 296.03125 485.582031 298.394531 C 485.582031 300.753906 490.292969 298.789062 487.933594 303.5 C 485.582031 308.222656 484.003906 307.042969 483.609375 309.402344 C 483.222656 311.761719 483.222656 309.796875 484.402344 315.691406 C 485.582031 321.589844 486.753906 323.160156 487.933594 325.121094 C 489.113281 327.09375 490.292969 329.445312 489.113281 332.988281 C 487.933594 336.527344 488.328125 336.925781 487.546875 338.878906 C 486.753906 340.851562 481.644531 344.390625 480.464844 347.140625 C 479.285156 349.886719 476.535156 349.886719 474.960938 355.003906 C 473.390625 360.113281 476.140625 362.859375 475.753906 366.402344 C 475.355469 369.941406 479.285156 372.699219 478.5 375.445312 C 477.714844 378.195312 476.535156 380.160156 473.78125 383.3125 C 471.03125 386.445312 471.429688 384.09375 470.636719 389.996094 C 469.851562 395.886719 470.25 398.644531 469.464844 402.570312 C 468.671875 406.507812 469.464844 406.507812 470.25 411.21875 C 471.03125 415.941406 474.574219 424.195312 474.574219 424.195312 C 474.574219 424.195312 478.105469 428.914062 480.464844 430.492188 C 482.824219 432.058594 485.582031 434.417969 485.582031 436.777344 C 485.582031 439.140625 482.429688 451.320312 482.429688 451.320312 C 482.429688 451.320312 479.679688 459.582031 479.285156 461.542969 C 478.898438 463.507812 478.898438 470.984375 479.285156 473.335938 C 479.679688 475.6875 482.039062 475.300781 481.644531 481.203125 C 481.257812 487.101562 479.285156 499.679688 479.285156 499.679688 C 479.285156 499.679688 481.644531 499.679688 480.464844 507.148438 C 479.285156 514.617188 479.285156 519.335938 479.285156 520.914062 C 479.285156 522.472656 482.824219 529.550781 484.003906 531.523438 C 485.183594 533.488281 498.554688 547.640625 498.554688 547.640625 L 508.769531 554.714844 L 513.492188 557.472656 L 521.355469 560.21875 L 528.039062 563.757812 C 528.039062 563.757812 531.183594 568.472656 531.570312 570.445312 C 531.96875 572.398438 532.363281 573.976562 530.789062 576.730469 C 529.21875 579.480469 530.398438 583.019531 530.398438 583.019531 L 535.113281 586.957031 C 535.113281 586.957031 537.074219 588.523438 539.832031 591.667969 C 542.582031 594.8125 545.722656 598.742188 545.722656 598.742188 L 550.832031 606.21875 L 550.832031 610.542969 C 550.832031 610.542969 549.265625 611.722656 548.867188 614.46875 C 548.480469 617.226562 553.589844 621.542969 554.375 623.515625 C 555.15625 625.480469 560.671875 632.164062 560.671875 632.164062 C 560.671875 632.164062 564.597656 636.09375 565.382812 638.453125 C 566.164062 640.8125 568.527344 646.703125 568.527344 649.066406 C 568.527344 651.433594 568.527344 650.640625 568.527344 655.757812 C 568.527344 660.867188 569.320312 662.046875 572.066406 663.21875 C 574.8125 664.398438 577.96875 667.542969 579.929688 669.515625 C 581.894531 671.480469 585.039062 680.128906 585.039062 680.128906 C 585.039062 680.128906 585.039062 685.234375 585.824219 688.378906 C 586.617188 691.53125 589.757812 695.0625 590.542969 697.035156 C 591.335938 698.992188 590.941406 704.894531 591.335938 707.253906 C 591.722656 709.613281 592.507812 710.007812 593.292969 712.363281 C 594.082031 714.722656 591.335938 726.125 591.335938 726.125 C 591.335938 726.125 592.121094 728.089844 588.96875 728.476562 C 585.824219 728.875 586.21875 729.660156 579.929688 729.660156 C 573.644531 729.660156 573.644531 731.621094 570.101562 728.875 C 566.5625 726.125 566.5625 728.089844 566.5625 724.550781 C 566.5625 721.011719 568.136719 715.117188 568.136719 715.117188 C 568.136719 715.117188 568.136719 714.335938 564.203125 714.335938 C 560.273438 714.335938 560.671875 714.722656 558.308594 716.296875 C 555.949219 717.867188 551.230469 717.867188 549.265625 717.867188 C 547.300781 717.867188 545.722656 717.476562 543.363281 717.476562 C 541.011719 717.476562 536.292969 716.296875 536.292969 716.296875 L 528.824219 709.21875 L 521.742188 710.792969 C 521.742188 710.792969 520.960938 711.972656 518.210938 712.363281 C 515.453125 712.757812 512.707031 714.335938 512.707031 714.335938 C 512.707031 714.335938 511.128906 714.722656 509.949219 717.476562 C 508.769531 720.226562 507.988281 726.515625 506.023438 726.515625 C 504.058594 726.515625 505.238281 729.660156 502.480469 729.261719 C 499.734375 728.875 499.734375 728.875 495.796875 728.875 C 491.871094 728.875 493.050781 729.261719 491.472656 730.839844 C 489.90625 732.414062 491.871094 733.585938 489.507812 734.378906 C 487.148438 735.164062 481.644531 732.027344 481.644531 732.027344 C 481.644531 732.027344 473.390625 707.253906 472.210938 705.289062 C 471.03125 703.324219 469.851562 700.964844 467.492188 700.179688 C 465.132812 699.386719 459.238281 697.035156 459.238281 697.035156 L 453.734375 693.488281 L 447.050781 689.957031 C 447.050781 689.957031 442.332031 687.984375 440.367188 686.414062 C 438.402344 684.839844 434.863281 683.273438 434.863281 683.273438 C 434.863281 683.273438 428.175781 673.839844 426.609375 674.226562 C 425.042969 674.621094 414.421875 675.011719 414.421875 675.011719 L 412.457031 672.660156 C 412.457031 672.660156 409.3125 668.335938 406.953125 666.363281 C 404.59375 664.398438 404.988281 664.792969 401.449219 661.640625 C 397.914062 658.507812 398.691406 657.324219 395.546875 657.714844 C 392.410156 658.109375 390.4375 658.109375 387.691406 658.109375 C 384.933594 658.109375 385.726562 661.640625 382.179688 657.714844 C 378.644531 653.785156 377.070312 652.992188 374.71875 649.855469 C 372.359375 646.703125 372.359375 646.703125 369.601562 643.171875 C 366.855469 639.632812 352.304688 625.082031 352.304688 625.082031 C 352.304688 625.082031 345.234375 620.371094 341.691406 620.371094 C 338.152344 620.371094 338.546875 619.976562 333.441406 617.226562 C 328.324219 614.46875 326.359375 611.328125 321.636719 610.542969 C 316.925781 609.75 321.25 614.46875 312.988281 608.183594 C 304.738281 601.902344 304.339844 601.902344 301.980469 599.535156 C 299.628906 597.171875 290.980469 587.742188 290.980469 587.742188 L 281.9375 580.660156 C 281.9375 580.660156 277.214844 577.128906 274.855469 574.371094 C 272.503906 571.625 271.710938 571.226562 270.144531 568.867188 C 268.566406 566.507812 268.179688 566.121094 266.601562 563.757812 C 265.027344 561.398438 263.460938 561.398438 261.882812 560.21875 C 260.316406 559.039062 259.53125 558.652344 255.992188 557.472656 C 252.449219 556.289062 248.910156 557.472656 246.558594 555.5 C 244.199219 553.535156 244.585938 553.535156 240.261719 550.390625 C 235.9375 547.246094 234.757812 546.453125 230.433594 542.921875 C 226.109375 539.382812 216.28125 529.949219 216.28125 529.949219 C 216.28125 529.949219 212.351562 526.804688 209.992188 525.226562 C 207.632812 523.660156 204.488281 522.085938 202.917969 518.941406 C 201.34375 515.796875 202.523438 514.617188 202.917969 511.859375 C 203.308594 509.113281 200.558594 507.535156 200.558594 507.535156 L 195.054688 504.789062 L 195.839844 496.136719 L 201.34375 493.777344 L 204.882812 494.957031 L 209.992188 495.355469 L 212.351562 492.210938 L 208.027344 487.886719 C 208.027344 487.886719 205.667969 484.347656 205.667969 482.769531 C 205.667969 481.203125 204.882812 478.453125 204.101562 476.878906 C 203.308594 475.300781 200.957031 470.183594 200.957031 470.183594 C 200.957031 470.183594 200.164062 470.589844 198.199219 467.039062 C 196.234375 463.507812 195.453125 459.96875 195.453125 459.96875 C 195.453125 459.96875 192.695312 458.390625 190.335938 456.03125 C 187.972656 453.679688 186.804688 452.113281 185.226562 449.75 C 183.648438 447.390625 181.289062 441.101562 180.109375 438.742188 C 178.9375 436.382812 179.324219 436.382812 176.972656 432.84375 C 174.605469 429.300781 174.21875 430.09375 171.46875 426.167969 C 168.714844 422.230469 171.855469 425.363281 168.714844 422.230469 C 165.570312 419.085938 162.027344 415.941406 162.027344 415.941406 C 162.027344 415.941406 156.921875 412.402344 156.128906 410.832031 C 155.34375 409.257812 152.984375 404.933594 152.984375 404.933594 L 149.054688 402.183594 C 149.054688 402.183594 146.308594 402.570312 145.128906 400.210938 C 143.949219 397.859375 144.730469 395.886719 143.949219 394.714844 C 143.164062 393.527344 141.984375 391.960938 141.984375 391.960938 L 136.867188 388.816406 C 136.867188 388.816406 134.507812 388.417969 132.148438 386.066406 C 129.796875 383.699219 129.398438 384.886719 129.011719 382.128906 C 128.613281 379.375 130.183594 375.84375 130.578125 372.699219 C 130.976562 369.546875 135.300781 367.183594 135.300781 367.183594 L 137.660156 363.652344 L 134.507812 357.355469 L 129.398438 352.257812 L 123.894531 349.105469 C 123.894531 349.105469 122.714844 350.671875 119.964844 345.574219 C 117.210938 340.457031 115.246094 336.527344 115.246094 334.953125 C 115.246094 333.375 113.667969 331.023438 113.667969 329.058594 C 113.667969 327.09375 116.03125 314.511719 116.03125 312.941406 C 116.03125 311.367188 120.363281 309.003906 120.363281 309.003906 L 122.714844 304.292969 L 121.535156 296.816406 L 121.144531 294.070312 L 115.640625 292.105469 C 115.640625 292.105469 116.03125 287.382812 116.03125 285.816406 C 116.03125 284.238281 116.820312 280.699219 116.820312 280.699219 L 115.640625 276.375 L 114.066406 272.449219 L 115.246094 270.085938 L 116.425781 268.125 C 115.246094 265.367188 113.667969 267.339844 112.886719 265.367188 C 112.101562 263.402344 113.28125 259.472656 113.28125 259.472656 L 110.136719 253.96875 L 106.597656 254.359375 C 106.597656 254.359375 103.453125 256.71875 101.488281 252.789062 C 99.523438 248.851562 99.914062 251.609375 99.523438 248.851562 C 99.128906 246.105469 89.695312 228.023438 89.695312 228.023438 C 89.695312 228.023438 86.941406 224.484375 86.542969 222.125 C 86.15625 219.761719 90.480469 216.222656 90.480469 216.222656 L 95.199219 208.753906 L 95.589844 198.140625 L 94.019531 193.035156 L 92.046875 188.3125 L 92.839844 184.386719 C 92.839844 184.386719 91.660156 182.414062 91.273438 180.0625 C 90.875 177.699219 91.660156 173.765625 91.660156 173.765625 L 89.695312 169.050781 C 89.695312 169.050781 88.515625 167.078125 88.121094 165.117188 C 87.722656 163.152344 88.121094 156.078125 88.121094 156.078125 L 91.273438 137.601562 C 91.273438 137.601562 92.046875 115.585938 91.660156 113.621094 C 91.273438 111.65625 90.875 107.71875 90.085938 106.152344 C 89.300781 104.574219 87.722656 101.828125 86.542969 99.070312 C 85.371094 96.316406 73.578125 76.65625 72.398438 75.089844 C 71.210938 73.511719 68.460938 68.015625 68.460938 68.015625 C 68.460938 68.015625 67.679688 64.476562 66.5 62.511719 C 65.320312 60.550781 63.742188 56.222656 63.742188 56.222656 C 63.742188 56.222656 62.957031 49.925781 62.957031 48.359375 C 62.957031 46.785156 63.742188 41.277344 63.742188 41.277344 L 68.859375 32.234375 L 69.253906 30.667969 " fill-opacity="1" fill-rule="nonzero"/><path fill="#a6a6a6" d="M 71.210938 173.375 L 78.292969 171.402344 L 81.832031 174.160156 L 84.578125 177.304688 L 87.335938 179.269531 L 85.371094 184.773438 C 85.371094 184.773438 85.371094 187.917969 84.191406 189.890625 C 83.011719 191.855469 81.832031 192.636719 81.4375 194.601562 C 81.046875 196.566406 81.046875 199.71875 81.046875 199.71875 C 81.046875 199.71875 82.617188 202.464844 80.253906 203.25 C 77.894531 204.042969 75.929688 202.863281 75.929688 202.863281 L 72.003906 199.71875 C 72.003906 199.71875 69.253906 199.320312 68.074219 198.925781 C 66.894531 198.539062 65.320312 198.925781 64.535156 195.78125 C 63.742188 192.636719 68.074219 183.988281 68.074219 183.988281 L 69.644531 179.269531 L 71.210938 173.375 " fill-opacity="1" fill-rule="nonzero"/><path fill="#a6a6a6" d="M 112.101562 336.925781 L 114.066406 344.390625 C 114.066406 344.390625 114.066406 348.707031 111.714844 347.535156 C 109.355469 346.347656 106.992188 344.78125 106.992188 342.816406 C 106.992188 340.851562 108.5625 338.09375 108.5625 338.09375 L 112.101562 336.925781 " fill-opacity="1" fill-rule="nonzero"/><path fill="#a6a6a6" d="M 574.03125 520.121094 L 578.75 522.875 L 581.109375 529.164062 L 583.472656 535.851562 L 583.859375 540.5625 L 581.5 545.667969 C 581.5 545.667969 579.535156 548.03125 576.785156 546.851562 C 574.03125 545.667969 571.679688 544.101562 570.5 542.527344 C 569.320312 540.957031 568.527344 539.777344 568.527344 537.804688 C 568.527344 535.851562 570.886719 533.09375 570.886719 533.09375 L 574.03125 529.550781 L 573.246094 524.445312 C 573.246094 524.445312 570.886719 520.121094 574.03125 520.121094 " fill-opacity="1" fill-rule="nonzero"/><path fill="#a6a6a6" d="M 436.835938 140.746094 C 436.835938 140.746094 432.898438 143.890625 430.539062 143.890625 C 428.175781 143.890625 423.464844 143.890625 423.464844 143.890625 L 423.464844 134.457031 L 429.753906 131.3125 L 436.835938 135.242188 L 436.835938 140.746094 " fill-opacity="1" fill-rule="nonzero"/></svg>